<?xml version="1.0" encoding="utf-8"?>
<!-- Generator: Adobe Illustrator 21.0.0, SVG Export Plug-In . SVG Version: 6.00 Build 0)  -->
<svg version="1.1" id="Lag_1" xmlns="http://www.w3.org/2000/svg" xmlns:xlink="http://www.w3.org/1999/xlink" x="0px" y="0px"
	 viewBox="0 0 256 256" style="enable-background:new 0 0 256 256;" xml:space="preserve">
<style type="text/css">
	.st0{fill:#E5E5E5;}
	.st1{fill:#018ADA;}
</style>
<path class="st0" d="M18.6,128c0-35.1,0.1-70.1-0.1-105.2c0-3.4,0.8-4.3,4.3-4.3c70,0.1,140,0.1,210,0c3.7,0,4.7,0.9,4.7,4.7
	c-0.1,69.9-0.1,139.8,0,209.7c0,3.7-0.9,4.7-4.7,4.7c-70-0.1-140-0.1-210,0c-3.4,0-4.3-0.8-4.3-4.3C18.6,198.2,18.6,163.1,18.6,128z
	"/>
<path class="st1" d="M181.6,115.6c0,14,0,27.9,0,41.9c0,10-5.7,17.3-15.4,20.1c-6.5,1.8-12.5,0.9-18.2-2.8
	c-8.8-5.8-10.3-16.6-3.2-24.5c6.6-7.3,15-9.3,24.3-8.1c2.4,0.3,2.5-0.3,2.5-2.2c0-18-0.1-36,0-54c0-2.2-0.8-2.7-2.8-2.2
	c-20.1,4.6-40.3,9.3-60.4,13.8c-2.8,0.6-2.3,2.3-2.3,4c0,18.9,0,37.8,0,56.7c0,4.8-0.4,9.6,0.1,14.4c0.9,8.5-8.5,17.5-17.2,19.2
	c-9.4,1.8-19.3-2.4-22.9-10.4c-2.7-5.8-1.3-11.1,2.7-15.8c6.4-7.5,14.8-9.7,24.2-7.7c2.9,0.6,3.2-0.1,3.2-2.6
	c-0.1-22.6,0-45.3,0-67.9c0-5.3,1-6.4,6.2-7.6c22.9-5.2,45.8-10.5,68.7-15.8c7.4-1.7,10.5,0.7,10.5,8.1
	C181.6,86.6,181.6,101.1,181.6,115.6C181.6,115.6,181.6,115.6,181.6,115.6z"/>
</svg>
