<?xml version="1.0" encoding="utf-8"?>
<!-- Generator: Adobe Illustrator 21.0.0, SVG Export Plug-In . SVG Version: 6.00 Build 0)  -->
<svg version="1.1" id="Lag_1" xmlns="http://www.w3.org/2000/svg" xmlns:xlink="http://www.w3.org/1999/xlink" x="0px" y="0px"
	 viewBox="0 0 256 256" style="enable-background:new 0 0 256 256;" xml:space="preserve">
<style type="text/css">
	.st0{fill:#018ADA;}
</style>
<path class="st0" d="M241.4,170.5c-6.6-26.3-10-53.4-9.9-80.5c0-5.9,0.1-12.2-3-17.2c-3.3-5.2-9.3-7.9-14.9-10.4
	c-10.7-4.7-21.3-9.7-31.8-15c-5.2-2.6-10.5-5.4-14.5-9.6c-4-4.2-6.7-10.1-5.6-15.8c-6.2-1.3-11.4,7.1-17.5,5.6
	c-1.9-0.5-3.4-1.8-5.1-2.9c-6.6-4.1-15.1-2.8-22.7-1.3c1.7,11.2,5.1,22.2,10,32.4c5,1.5,8.2-5,12.4-8.2c5.9-4.5,15-1.7,19.7,4.1
	c4.7,5.8,6,13.5,7,20.9c5.2,37.1,7.4,75,1.2,112c-1.5,0.1-3.1-0.1-4.6-0.6C150.4,132.6,131,83,104.8,37.2c-0.7-1.1-1.4-2.3-2.6-2.9
	c-1.2-0.6-2.6-0.4-3.9-0.1C74,38.6,50.4,46.9,28.7,58.7c-3.6,2-7.3,4.2-9.6,7.6c-2.7,4.1-3.1,9.3-3.3,14.2
	c-1,21.9-2.1,43.8-3.1,65.7c0.2,0.7,0.3,1.4,0.3,2.1c0.1,0.6,0.3,1.1,0.3,1.7c0.4,0.7,0.7,1.4,0.9,2.2c0.3,0.3,0.5,0.7,0.8,1.1
	c0.7,0.6,1.3,1.3,1.8,2.1C55,184,94.6,210.9,135.3,236c34.9-16.8,68.9-35.4,101.7-55.8c2-1.2,4.2-2.7,4.8-5
	C242.2,173.7,241.8,172,241.4,170.5z"/>
</svg>
