<svg data-name="Lag 1" xmlns="http://www.w3.org/2000/svg" width="8.9" height="30"><path d="M5.2 23.7H3.6a.8.8 0 0 1-.8-.7L2.2 8.5h4.5L6 23a.8.8 0 0 1-.8.7zM4.9 25.2H3.8L3.6 24h1.6l-.3 1.2zM4.5 0h-.1A4.3 4.3 0 0 0 0 4.3a4.3 4.3 0 0 0 1.8 3.5h5.1a4.3 4.3 0 0 0 1.8-3.5A4.3 4.3 0 0 0 4.5 0z" fill="#414143"/><path d="M8 4.5h-.1A3.4 3.4 0 0 0 4.5.9a3.7 3.7 0 0 1 3.7 3.4z" fill="#fff"/><path d="M6.6 30l-1-.3a3.2 3.2 0 0 1-1.4-2.2A7.4 7.4 0 0 1 4 26v-.4h.8v.4a6.6 6.6 0 0 0 .2 1.3A2.6 2.6 0 0 0 6 29c.5.3 1.3.2 2.2-.4l.4-.2.4.7-.4.2a4 4 0 0 1-2 .7z" fill="#414143"/><rect x="4" y="10.2" width=".8" height="1.92" rx=".4" ry=".4" fill="#e8e8e8"/><rect x="4" y="10.2" width=".8" height="1.92" rx=".4" ry=".4" fill="#e8e8e8"/><path d="M4.7 11.1v-.6a.3.3 0 0 0-.3-.3.3.3 0 0 0-.3.3v.6z" fill="#414143"/></svg>