<svg id="Lag_1" xmlns="http://www.w3.org/2000/svg" viewBox="0 0 256 256"><style>.st1{fill:#eea804}</style><path d="M190.3 195.4c-.2 0-.3-.3-.3-.4.1-.2.4.1.4.2 1.2-1.1 2.3-2.3 3.5-3.4-.1 0-.2 0-.4.1 0-.3.2-.4.3-.7l.7-.1v.1c7.3-7.8 13.3-16.8 17.5-26.7-.3.1-.6-.2-.9-.4.3-.2.7-.3 1.1 0 4.8-11.2 7.3-23.6 7.2-36.4-.3 0-.2-.5-.1-.5h.1v-2.4c-.1-.4-.1-.8-.1-1.1v-.7c-.3-.3-.3-.6-.2-1-.8-.4-1.8-.6-.9-1.6 0 .3.5.9 1 1.3-.1-.8-.1-1.6-.2-2.4-.8-7.6-2.5-15-5-21.9l-.4-.3.2-.2c-2-5.4-4.5-10.6-7.5-15.5 0 0-.1 0-.4.1-1.1.1.2-.1.4-.1-1.2-2-2.5-4-3.9-5.9v-.1c-.9-1.3-1.9-2.6-2.9-3.8-.2.1-.4.1-.6.1-.3-.3-.3-.6-.1-1-2.5-3-5.2-5.9-8-8.5-.5.4-1.2.7-1.8 1.5-.3 0-.6.2-.9.1 4.3 3.9 8.2 8.3 11.6 13.1 0-.1 0-.3.1-.3.3 0 .2.5.1.5h-.1c1.2 1.7 2.4 3.4 3.5 5.2h.2v.3c.6.9 1.1 1.8 1.6 2.7.1-.1.1-.2.2-.3 0 .5.4.9.4 1.4.6 1.2 1.3 2.3 1.8 3.6.1 0 .1.1.1.2.1.3.3.6.4.9 0-.2.2-.3.2-.5.2.2 0 .5-.1.7 4.1 8.7 6.8 18.2 7.8 28.3 4.9 48.4-30.3 91.6-78.7 96.6-11.6 1.2-23 0-33.6-3.1-.3.5.1 1.7-1.2 1.4.1-.5.1-1.2.3-1.7-7.4-2.2-14.4-5.5-20.9-9.5.1.1.1.3.1.5-.3 0-.3-.4-.4-.6-2.5-1.6-5-3.3-7.3-5.1 0 .1-.1.2-.1.3-.5-.1-.2-.3-.2-.5-.1-.1-.3-.2-.4-.3-.5.5-.8 0-1.3-.3-1 0 .6 2.2-.9 1.8 0-.8-.1-1.7-.5-2-.6.7-.9.1-1.7.2-.8.2.5.9.8 1v.3c1.4 1.1 2.8 2.3 4.2 3.3.1-.4.6.3.6-.4.4.1.3.7.8.6 0 .3-.2.3-.5.4.8.6 1.5 1.1 2.3 1.6-.2-.2-.3-.4-.3-.7.4-.5 1.2-.6 1.4.2.7-.3.6-1.1 1.3-.5.3.3.4.7.5 1.3-.2 1.1-.5-.6-.5-1l-.7.1c-.4.1-.3 1.1.1 1-.1.2-.8.2-1.4-.1.5.4 1.1.7 1.6 1.1-.1-.1 0-.3.2-.3.3 0 .4.4.2.6.4.2.8.5 1.1.7.3-.1.6 0 .8.2 0 .1-.1.2-.1.2 2.7 1.6 5.5 3.1 8.3 4.4-.1-.5 0-1 .4-1.4.9 0 .8 1 .9 1.9 14 6.2 29.8 9 46.1 7.4 20.8-2 39.1-10.7 53.1-23.8zm-124.1-4c-1.4-.1-2.3-.8-2.6-2.2.7 0 .8.8 1.2 1.3.3 0 .7 0 1 .1-5.2-5.3-9.8-11.2-13.5-17.7.1.2.2.5.1.8-1-.1-.7-1.7-2.2-1.2.5-.7 1.5-.5 2 .2-6.2-10.4-10.2-22.3-11.5-35.1-4.2-41.5 21.1-79.1 58.8-92.2-.5-.2-.5-1.1-.4-1.6.8-.5.7 1 1.1 1.3 6.1-2.1 12.5-3.5 19.2-4.2 24.8-2.5 48.3 5.5 65.9 20.5.3-.7.6-1.4 1.4-2.1.2-.1.4-.1.6-.1-18.3-15.5-42.6-24-68.3-21.3-4.9.5-9.7 1.4-14.3 2.6 0 .1-.1.2-.2.2v-.2c-30 8.1-53.4 30.9-62.9 59.6.1 0 .1 0 .2.1.3.4-.2.2-.4.5-3.7 11.6-5.2 24.2-3.9 37.1 1.2 11.5 4.5 22.3 9.4 32.1.6-.2 1.4-.1 1.4.8-.3 0-.4-.3-.7-.3-.1.1-.2.1-.3.2 1.6 3.2 3.4 6.2 5.4 9.1v-.2l1-.1.1 1c-.4.1-.5 0-.7-.2 2.8 4 5.9 7.8 9.2 11.3-.1-.1-.1-.4-.2-.6.3 0 .3.4.4.7-.1 0-.1 0-.2-.1 1.3 1.4 2.7 2.7 4.1 4 0-.2 0-.5-.1-.9.4.7 1.8.1 1.8 1.2 1-.1 2.2-.1 3.3.1-1.9-1.6-3.7-3.2-5.5-5 .3.3.3.4.3.5z" fill="#f9d400"/><path class="st1" d="M202.4 33.5c.1-.8-.1-1.4-.7-1.5-.6.6-.4 1.7.7 1.5zm-14.6-8.2h-.5c0 .1-.1.2-.2.2.1.5.5.2.7-.2zM77.4 33.6h-.7v.4c.2-.1.5-.3.7-.4zm3-1.5c-.8-1.1-1 .1-1.5.4-1.1-.6.1-1.1.6-1.7-.5-.6-1-.5-1.5-.8-.3.3.1.6.3.8-.4.5-.7.2-1.1.6-.6 1 1.1.7 1.4 1.4-.2.1-.3.2-.3.4.7-.4 1.4-.7 2.1-1.1zm.7-3.4c-.3.7-2 .3-1.4 1.4.6-.6 1.1.9 1.7 1.1.3-.8 1.8-.1 1.1-1.1-.5.2-.9.3-1.4.3.8-.7.1-1 1.1-1.1-1.2-.6-.9-.6-1.1-1.7-.6.3-1.1.3-1.7.5.6 1.2 1.1-.7 1.7.6zm-5.9 6.1c.3-.2.6-.4.9-.5-.7-.6-1.3-2.1-2-1 1.2.6 1 .7 1.1 1.5zm-2.1 1.3c.2-.1.5-.3.7-.4-.1 0-.2 0-.2-.1-.2.1-.3.3-.5.5zm125 191.8c-.4.7-.7 1.5-.6 2.2.3-.2.7-.3 1-.5h-.1c.1-.9-.1-1.3-.3-1.7zM74.4 30.9c0-.2-.5-.3-.5 0 0 .1.5.2.5 0zM75 32c-.8 1.2-1.7-.7-2.5-.3 1.4.6.8 2.5 1.7 2.2-.3-.4-.1-.7 0-1.1.3-.3 1.1-.1.8-.8zm1.4-.9l-.6-.5c-.4.3-.7 0-1.1.5l.8.8.9-.8zm117.8 190.4c0 .2.3.4.4 0-.1-.2-.4-.4-.4 0zm25.3-31c.1 0 .3 0 .5-.1l.3-.3c-.4.1-.8 0-.8.4zm-.4-2.4c0 .5-.2.9-.4 1.2.8-.2 2.7.6 2.3-.8-1.2.4-1 .2-1.9-.4zM59 55.2c0 .2.6.3.6 0-.1-.2-.6-.3-.6 0zm160.9 130.4c-.3.4-.6.9-.8 1.3.2-.2.5-.3.8-.4v-.9zm.7 2.5c.4.1.6.4.7.7l.5-.5c-.5-.3-.9-.7-1.2-.2zM184.2 36.4c.1-.1-.2-.5-.4-.4 0 .1 0 .2.1.3.1 0 .1.1.2.1 0 .1.1.1.1 0zm-3.3-9.4c-.2-.3-.5-.4-1-.5 0 .2-.1.4-.1.6.1.2.3.4.4.7.4-.2.3-.8.7-.8zM77.2 30.9c0-.2-.5-.3-.5 0 0 .1.5.2.5 0zm103.4-4.6c.1-.1 0-.3-.2-.4h-.2c0 .1.2.5.4.4zm51.7 143.6c.7 0 2.3.8 2.9.4-1.3-.3-1.7-1.7-2.9-.4zm-14.8 19.3l-1.5 2.1c.2.4.5.7.3 1.4-.1-.1-.2-.2-.3-.2 0 .2-.3.3-.4.2-.1-.1 0-.2 0-.2-.2.1-.4.1-.6.2-.2.3-.4.5-.6.8.3 1.1-.6 1-.4 2-.3-.2-.4-.5-.5-.8-1.3 1.7-2.7 3.3-4.1 4.9.2.1.4.1.7.2 0 .5-.6.5-1.2.4-2.7 3-5.5 5.9-8.5 8.5.1.2.2.3.3.4-1.2.7-1.9 2-2.5 3.3-.7-.2-.8-.6-.7-1.1-.7.6-1.3 1.1-2 1.7.1.1.1.1.2.1.1.9-.8.9-1.5.9-1.6 1.2-3.1 2.4-4.8 3.5 0 .1-.1.2-.3.2-6.5 4.5-13.6 8.2-21 11.2.1.4.2.9.2 1.4-.5-.2-.8-.6-1-1.1-12.1 4.7-25.2 7.3-38.9 7.3-17.2 0-33.5-4.1-48-11.3-.7.5-1.3 1.2-1.2 2.6-1.3.1-1.8-.8-2.5-1.4.2-1.1.9-1.6 1.5-2.3-1.3-.7-2.6-1.4-3.9-2.2-.1.2-.4.3-.5.4-.4.9 0 2.6-1.4 2.5-.5-.9.6-1.2.4-2.5 0-.5.4-.7.6-1l-3.3-2.1c-.1.4-.2.7-.5.9 0 .7.7.8.7 1.6 0 .9-.5 1.2-.7 1.9.4.8 1.1-.4 1.8.2.1.9-.5 1-.3 1.9-.1.7.8.5.9 1.1.2.5.7.6.9 1.1-.2 2.2-1 3.7-3.7 3.3-.3-.5-.3-1.3-.5-1.8-.3-.5-1-.6-1.4-1.1-.2-1.1-.8-1.7-.7-3.2 0-.7-1-.5-.7-1.6-.5-.7-1.5-1-1.8-1.9-1.2-.3-2.5-1.3-4.1-.7-.7-.2-1.1-.7-1.6-1.1-.6-.2-1.3-.4-1.1-1.4 1.2-.2 1.7-1 3-1.1.8-.3.9-1.2 1.6-1.6 1 .1 1.6-.2 2.3-.4.7.3 1.2 1 1.8 1.4.2 0 .4-.1.5-.3-5-3.5-9.7-7.5-14-11.8-.3.2-.7.5-1.1.6-.4-.3-.6-.8-.9-1.2-.4-.2-.5-.8-.5-1.4.1-.1.3-.1.4-.2-11.6-12.2-20.3-27.1-25.2-43.7-.3.2-1.1.2-1.1-.2 0-.5.5-.6.9-.6-1.1-3.8-2-7.7-2.7-11.7-.1 0-.2 0-.4.1-1.1-.2 0-.2.3-.2-1-5.8-1.5-11.8-1.5-17.9 0-31.3 13.4-59.5 34.7-79.2v-.7c.4-.2.5-.1.6.1.3-.3.7-.6 1-.9-.2-.1 0-.3.2-.3.1 0 .1 0 .1.1 4.7-4.1 9.7-7.9 15-11.1 0-.4.2-.9.6-1.3-.8-.6-1.7-.9-2.5-.8 0-1 .3-.7-.8-1.4.8-.6.1-1.1 1.1-1.6.5.4.2.7.6 1.1.7-.5.1-.9-.3-1.4.5-.1.9.1 1.4.3 0-1.2.5-1.6 1.7-1.1-.8-1 1.2-1.3 1.7-2.8-.5-.6 0-1.1.1-1.7l-2.2-.2c.2.2.4.3.7.5l-1.1 1.1c-.5-.5-.2-.9-.8-1.4-.3-.3-.6.1-.8.3-.4-.2-.3-.5-.3-.7l-1.7-.1c0 .3-.5.1-.6 0-4.2-.3-8.4.9-12 3.2.1.1.1.2.1.3-.1.1-.2 0-.3-.1l-1.2.9c.4 0 1.1 0 .2.2-.1 0-.2 0-.3-.1-3.4 2.7-6 6.4-7 10.6l-2.2 9.4c-2.1 9-10.4 20.3-18.3 25.1l-8.3 5c-7.9 4.8-11.5 15.7-7.9 24.3l3.7 8.9c3.6 8.6 3.6 22.5 0 31.1l-3.7 8.9c-1.6 3.8-1.8 8.2-.7 12.2.1-.7.8-.8 1-1.3 1 .5 1.2 2 1.2 3.5-.4.3-1.2.1-1.6 0 .4 1.1 1 2.3 1.6 3.3-.2-.6-.3-1.3-.4-2.1.5-.3 1.4-.2 1.9-.4 0-.7.3-2 .5-3 0-.6-.5-.7-.9-.9-.3-.7-.6-1.5-.7-2.5.6-.6 1.3-1.3 1.2-2.6.4.1.7 0 .9-.2 0-1-1.5-.6-2.1-1.1 0-.8.8-1 1.1-1.6.6-.1.5.5.9.5.8-.4.3-1 .2-1.8.5-.8 1.6-2.7 2.6-1.4-.1 1.9-.7 3.3-.9 5.1.5 1.6.6 3.4.2 5.1.2 1 .5 2.1.4 3.5-.4.6-1.1.8-1.4 1.4-.9.2-.9-.5-1.4-.7-.4.4 0 1.7-.5 1.9.5.6.4 1.9 0 2.9 1.3 1.7 2.9 3.1 4.7 4.2l8.3 5c7.9 4.8 16.1 16.1 18.3 25.1l1.2 5.2c.1.1.2.3.4.3.9-1.4.8-3.7 2.6-4.1.7.9.9 2.2 1.4 3.4-.4 1-.3 2.3.7 2.8.8.1.7-.6 1.2-.7.8.1 1.1-.2 1.8-.2.8.1 1.2.5 1.8.9.8 0 1-.8 1.8-.4.6.7-.2 1.4-.4 1.9-1.7-.3-2 .8-3.5.7-.5.2-.3 1.1-.9 1.2.2.9 1.1 1.2 2.1.9.5.8 0 2.1-.4 2.6-1 .5-2.2.7-2.3 2.1-.3.3-.6.5-1 .8.5.6 1 1.1 1.6 1.6.1-.2.1-.3.3-.5.5-.2.3.4.4.7.1.1.2.3.2.4 1.3 1.1 2.8 2 4.3 2.7.7-.5 1.8-.6 1.8-1.9.4 0 .8 0 1.1.2.1.6-.1.8-.2 1.2.9.3 1.4.8 1.8 1.6l-.3.3c1.7.4 3.5.5 5.3.4l9.7-.8c9.2-.7 22.5 3.6 29.5 9.6l7.4 6.3.3.3c.6-.3 1.4.2 1.3.9 3.1 2.1 6.7 3.2 10.4 3.3.2-2 .5-4 .7-6 .4-.2.6-.5.7-1.1.6-.2.7-1 1.4-1.1.2-.5.1-1.2.9-1.1.3.8-1 1.3-1.1 2.3-.4.2-.7.4-1.1.5.1.7.4 1.2.7 1.8-.1 1.1-.3 2.2-.4 3.3.1-.1.3-.2.3-.1.2.2-.2.4-.4.4 0 .2-.1.5-.1.7 1.5 0 .7-2.4 2.1-2.5.2.2.7.2.7.5-.1.7-.2 1.4-.4 2.1 3.4-.6 6.6-2 9.3-4.2l7.3-6.3c5-4.3 13.3-7.7 20.9-9.1 0-.2.3-.3.4-.3v-.6h1.1c0 .3-.1.4-.1.6.9-.1 1.7-.2 2.6-.3-.5-.5-1-1.1-1-2.1.8.4 1.1 1.2 1.3 2.1 1.5-.1 2.9-.1 4.3 0l9.7.8c2.8.2 5.5-.2 8.1-1.2.1-.2.3-.4.6-.5 0-.8-1.1-.5-.8-1.6.6 0 1.1.3 1.4.6.1-.2.2-.3.4-.3-.4-1.2-.2-3.7.7-4.7 1 .8.7 1.8.2 2.8.7.1.9.7.8 1.5.2.1.4.1.5.1 1.5-1 2.8-2.1 4-3.4 0-.1 0-.2-.1-.3.1 0 .2.1.3.1.7-.7 1.2-1.5 1.8-2.3h-2.1c-.9-.9.5-.7.4-1.8-.6-.4-1.1-1.1-.4-1.8 1-.1.9.8 1.1 1.5.8 0 1.5.1 2.1.3.7-1.3 1.2-2.7 1.6-4.1l1.2-5.1c-.8-.3-1-1.2-1.4-1.9.1-.1.2-.1.3-.1h-.1v-1.5c.7-.1 1.1.1 1.1.7.3-.2.5-.2.8-.2l.3-1.3c0-.1.1-.2.1-.3-.3.3-.7.7-.1 0 .1-.1.1-.1.2-.1.1-.4.3-.9.4-1.3-.1 0-.2.1-.2 0-.2-.2.1-.4.3-.4.1-.2.1-.4.2-.6h-.1c.1-.1.1-.2.2-.3.1-.3.2-.6.3-.8-.2 0-.4-.1-.5-.1.3-1.1-.4-1.3-.4-2.2 1-.1 1.2.5 1.1 1.5h.1s.1 0 .1-.1c.2-.4.3-.7.5-1.1h-.4c0-.3.3-.4.7-.4.1-.3.3-.6.4-.9l-.1-.1c.1-.3.2-.3.3-.2 1-1.8 2.1-3.7 3.3-5.5v-.9c.2.1.4.1.6.1.3-.4.6-.9 1-1.3.1-.1.2-.3.3-.4h-.3c.1-.5-.1-.7-.4-.8l1.2-1.2c-.4.7-1.1.6-1.6.3zM59.2 41.9c-.2.2-.5-.3-.4-.4.2-.2.5.3.4.4zm.7 2.9c-.2.2-.5-.3-.4-.4.3-.2.5.3.4.4zm4.8-9.8c.2-.2.5.3.4.4-.3.1-.5-.3-.4-.4zm-.8 5.8c-.4-.2-.7-.5-.7-1.1.5.2.8.5.7 1.1zm-.7-6.2c-.7-.2-1.6-.1-1.5-1.1 1-.1 1.6.2 1.5 1.1zm-3.3-2.2c-.3-.4-1.3-.1-1.1-1.1.8 0 1.2.3 1.1 1.1zm1.5 2.2c-.9-.3-1.9-.5-3.3-.4-.1-1.2 3.8-1.1 3.3.4zm-4 5.1c-.8.2-.5-.7-1.1-.7.1-.9 1.4-.1 1.1.7zm-.7-2.6c-.6-.2 0-.4.4-.4.5.3 0 .5-.4.4zm-1.5-4.3c.8-.8 2 .1 1.8 1.4-.7-.7-.9 0-1.8 0v-1.4zm0 6.9c.2 0 .4.3 0 .4v-.4zm0 6.5c.2 0 .4.3 0 .4v-.4zM19.9 149.9c-.6.1-.6-.4-.5-.9h.9c0 .5 0 .9-.4.9zm6.4 25.9c-.9.1-.8-.7-1.4-.9-.8 0-.6.9-1.2 1.1-.8-.2-1.1-.9-1.9-1.1-.1-.9.6-1 1.1-1.4.8.5 1.6 1 3 .9.2.3.9.8.4 1.4zm1.5.4c.4-.1.5.1.7.2 0 .5-.8.4-.7-.2zm29.5 46c1 .2-.6.8 0 0zm6.3 5.5c.3 0 .4.3.4.7-.5 0-.6-.5-.4-.7zm24.9 3.1c-.4.3-1.6.3-1.9 0 .2-.8.9-1 1.8-1.1-.1.5.2.6.1 1.1zm26.1 15c-.7.2-.6-.8-.4-1.1h.5c.3.3.4 1.1-.1 1.1zm3.5-2.3c-.2-1.1 1.8-1.2 1.6 0-.4.2-1.2.4-1.6 0zm1.6 5.1c-.7.1-.6-.8-.2-.9.5.1.4.7.2.9zm3-1.4c-1 0-1.7-.4-1.6-1.6.7.1.9-.3 1.6-.2.1.2.2.3.4.4 0 .7-.2 1-.4 1.4zm.6.1c0-.4.4-.3.7-.4 0 .4-.4.3-.7.4zm4.7-1.8c.1-.4.4-.2.4 0-.1.4-.4.2-.4 0zm-.5-2.2c-.6-.8.3-2.2 1.1-1.6-.1 1-.4 1.5-1.1 1.6zm3.7 4.6c.1-.3.2.1.2.4-.2.3-.3-.1-.2-.4zm1.2 3.1c0-.4.4-.3.7-.4 0 .3-.4.3-.7.4zm.3-.8c-.2-.2.3-.5.4-.4.2.2-.3.5-.4.4zm1.9-.3c-.2-.9.7-.8.4-1.8 1-.6.4 2-.4 1.8zm2.1-3.7c.2-.6.4 0 .4.4-.2.6-.4 0-.4-.4zm1.5 2.6c-.2-.2.3-.5.4-.4.1.2-.3.5-.4.4zm21.4-15.7c-.2-.2.3-.5.4-.4.2.3-.3.5-.4.4zm36.4-16.3c.4 1.1-.8.6-1.4.7 0-.6.5-.8 1.4-.7zm-1.5-2.6c.2.2-.3.5-.4.4-.1-.2.3-.5.4-.4zm-2.9 5.1c-.2-.2.3-.5.4-.4.2.3-.3.5-.4.4zm5.5 4.8c-.8-.5.3-1.8-.4-2.2 1.3-.9.9 1.2.4 2.2zm-1.9-1.5c-1-.2-.3 1.4-1.1 1.5-1.4.6.4-2.5-1.1-1.1-.5-.7.8-2.6 1.1-3.6.5.1.3.9.4 1.5.6-.1.8-.6.7-1.5 1.1.3 1.6 1.1 3.3.7-1.6.3-1.7 2.1-3.3 2.5zm4.4-12.3c1.3-.4.6 1.6.4 1.8-.8 0-.2-1.3-.4-1.8zm1.1 9.4c-.1.4-.7.3-1.1.4.1-.5.7-.3 1.1-.4zm-1.1 4c-.2-.2.3-.5.4-.4.2.2-.3.5-.4.4zm.4 4c-.9-.7.6 0 1.1 0-.3.6-.7 0-1.1 0zm3.2-10.9c-.7.7-.3 1.6-.7 1.8-.1 1.1-1-2.2.7-1.8zm1.9 6.5c.2.2-.3.5-.4.4-.2-.2.3-.5.4-.4zm-1.5 1.5c0-.4.4-.3.7-.4 0 .4-.4.3-.7.4zm.4-1.1c0 .4-.4.3-.7.4 0-.4.4-.3.7-.4zm2.9-16c0 .4-.4.3-.7.4 0-.4.4-.3.7-.4zm-2.6 11.3c.2-.7.1-1.6 1.1-1.5.7.6-.1 1.4-1.1 1.5zm1.5.7c.1-.5.7-.4.7 0-.3.2-.6.4-.7 0zm1.8-1.5c-.3-.1-.3.1-.4.4h-.7v-.7c.3.1.3-.1.4-.4h.7v.7zm0-9c.1-.4.4-.2.4 0-.1.4-.4.2-.4 0zm1.1-4c.2-.3.3-.6.7-.7 0-.7-1-.5-.7-1.5 1.1.1 1.7.7 1.8 1.8-.4.3-1 .5-1.8.4zm0-4c.8.5 2.3.4 2.2 1.8-1-.4-2.1-.6-2.2-1.8zm4.4-1.1c-.2-.2.3-.5.4-.4.1.2-.3.5-.4.4zm4-9.5c-.2-.2.3-.5.4-.4.1.3-.3.5-.4.4zM186.8 26.3c-.2-.1-.2-.5-.1-.9l-.6.1c-.1.6.3 1.5.7.8zM76.7 33.1c-.3-.2-.6-.5-.8-.3.2.2.5.5.8.3zm42.5-17.2c-.2.3-.1.6.3.8.2-.2.1-.5-.3-.8zm111.3 149.3c0 .5-.2.8-.4 1.1.7-.2 2.5.6 2.2-.7-1.1.4-.9.1-1.8-.4zm1.1 1.8c-.3.1-.7 0-.7.4.2-.1.7 0 .7-.4zM79.7 27.3c-.2-.2-.3-.4 0-.6.2.2.5.1.3-.3-.5.3-.9 0-1.4.3.4.3.7.8 1.1.6zM229.8 171c-.1-.1-.6.2-.4.4.1.1.6-.2.4-.4zm3.6-3.6h-1.1v1.1h.7c.1-.5.5-.5.4-1.1zm-23.7 43.7l.3-1.2c-.4-.1-.7-.2-1.2-.2.4.2.8.7.9 1.4zM77.5 30c-.5-.5-1.1-2.3-1.9-2.5.8 1.3-.1 2.6 1.9 2.5zM11.6 167.5c-.1-.7-.3-1.3-.6-1.8l.6 1.8zM138 8.2c-.3-.2-.6-.5-.8-.3.3.2.5.5.8.3zm67.3 28.9c-.1.1.2.5.4.4.1-.1-.2-.5-.4-.4zm27 131.7c-.1-.1-.5.2-.4.4.2.1.6-.2.4-.4zm1.5-1.4c.1.1.6-.2.4-.4-.2-.1-.6.2-.4.4zm12-11.7c-1-.4-1.2-1.4-.7-2.5v-.1l-.1-.3h-.2v-.4l-3.5-8.3c-1.9-4.6-2.8-10.8-2.6-16.8-.1.1-.3.2-.4.1-.2-.2.2-.5.4-.4.1-5.1 1-10.1 2.6-14l3.7-8.9v-.1c-.2.2-.6.4-.5.6-1.2-.3.4-.7.4-1.1.1 0 .2 0 .2.1 3.2-8.5-.3-19.1-8.1-23.8l-6.2-3.8c-.9-.1-2.2-.9-3.1-1.2.1-.2.3-.3.6-.3-5.8-3.7-11.7-10.8-15.2-17.8-.2 0-.4-.3-.3-.4h.1c-.1-.2-.1-.3-.2-.5-.3.6-.4 1.3-.6 1.9-1.1-.3-1.3.4-2.2.4-.1-1 .5-1.2 1.5-1.1.3-1-.5-.9-.4-1.8.3-.2.7-.4 1.1-.6-.3-.8-.6-1.6-.9-2.3h-.6c-.1-.4.1-.6.4-.7-.2-.7-.4-1.4-.6-2l-1.9-8c-.1 0-.1-.1-.1-.1s0-.1.1-.1l-.3-1.2c-.1-.3-.1-.5-.2-.8-.1-.2-.2-.4-.2-.6-.1-.2-.1-.4-.2-.6-.1-.1-.1-.1-.2-.1 0-.1 0-.2.1-.2-.3-.8-.7-1.5-1.1-2.3-.6.3 1 1.3-.5 1-.3 1.1 1 .7.7 1.8.2.6 1.1.3.7 1.5-.3-.4-1.3-.1-1.1-1.1-.8.1-.1 1.6-.7 1.8-.7 0-.8-.4-1.5-.4-.1-.6.3-.7.7-.7-.9-2 .7-2.7 0-4.7.3.3.9.4 1.4.4-.1-.1-.2-.3-.3-.4-.8-.1-1.2-.5-1.9-.7.4-.5.4-1 .3-1.4-.2-.2-.4-.5-.6-.7 0 .2-.1.4-.3.5-.1.5-.2 1-.2 1.6-.7-1.2-.6-.1-1.8 0-.7-.8-.4-2.5-2.2-2.2.7-.9-.2-2.5 0-3.7-.1-.1-.2-.1-.3-.2-.1 0-.2 0-.3-.1v-.1c-.1-.1-.2-.1-.3-.2 0 .2-.5.1-.5 0s.1-.2.2-.2c-.7-.4-1.5-.8-2.3-1.1-.1.4-.3.5-.9 0 .7 1.3-.9 1.2-.4 3.3h-1.5c-.1-1 1.2-.7.7-2.2-.5-.5-1.5-1.1-.7-1.8 0-.1-.1-.1-.1-.1-1.7-.4-3.4-.6-5.1-.5.8.6-.3 1.4 1.3 1.3-.3.3-1.6.5-2.5 1.1.1.9.6-.5 1.5 0-1 1.4 0 1.4-.4 2.5 1-.4.9-.2 2.2 0 .7 1-1.6.7-.4 1.1-.3 1.4-1.4-1.8-1.5.4-.4-.3-1-.5-1.8-.4-.3-.7.5-1 .4-1.5-.3-1.6-2.1-1.9-1.4-3.6-.2-.3-.4-.5-.7-.7h-.1c.1.1.1.2 0 .3-.3.2-.6 0-.6-.3l-2.1.2-.5.5c.1.4.4.2.4 0 .4.8 1.1 1.3 1.1 2.5-.5 0-1.6-1.5-1.5 0-.6-.2-.3-1.1-1.5-.7-.1 1 .8.9 1.5 1.1-.8 1.1-1.1.5-.4 1.8-.3.1-.3-.1-.4-.4-.7.1-.7 1-1.1 1.5-.3-1.2-.2-2.9-.1-4.5-.1-.4-.1-.8 0-1.2-.1 0-.2 0-.3-.1.2-.1.2-.2.3-.3l-1 .1c.3.1.5.4.4.9-.6.1-.7-.3-.7-.7-.6.6-1.5.9-2.9.7-.1-.2-.2-.5-.2-.8-3.6-.1-7.6-.8-11.5-2-.5.2-1.1.2-1.7-.1.2-.2.2-.3.3-.4l-.9-.3c.1.3.2.7.3 1.1-1.2.2-1.4-.6-1.4-1.5-4.4-1.7-8.5-3.9-11.4-6.5l-2.6-2.2c-.3.1-.6.2-.9.2 0-.4 0-.7.1-1l-4-3.4h-.1c-.3.2-.5-.1-.8-.3.1-.1.3-.1.4 0-.6-.4-1.1-.9-1.7-1.2.1.6-.1 1.2-.9 1.2l1.7 1.7c0 1.3-.9.1-1.7 1.1.2.7-.1 1.7-1.1 1.7-.8-.6-.1-1.3.3-1.9-1.3-1.3-1.5-2.6-2.2-3.9.5-.1 1.1-.4 1.6-1.1-.3-.1-.6-.2-.9-.4-.4.2-.9.7-1.3.3.3 1.9-1.5 2.8-2.8 3.9-2-1.3-2.5-.6-4.1-2.5 1-1.1 2-.1 3-.8.5.5.2.9.8 1.4 2.2.3 0-2.7 1.9-2.5-.3-.2-.5-.5-.7-.7-1.6-.3-3.2-.5-4.8-.4-.2.5-.5.9-.9 1.4-.5-.7-1.1-1.1-1.6-1.2-2.4.3-4.7 1.1-6.8 2.2l.1.1c-.7.8-1.9.7-2.2 1.7-.1-.1-.2-.1-.2-.2-.2.2-.5.3-.7.5l-7.4 6.3c-5.4 4.6-14.5 8.3-22.7 9.3v.1c-.2.1-.3.1-.3 0-1.2.1-2.4.2-3.5.3-.2.4-.2.9 0 1.4 1 .6.3-.9 1.1-1.1 1.9 1.7-1.6 1.7 1.1 3.3-.9 0-.6.5-.7 1 4.9-2.3 10-4.2 15.3-5.7l.3-.3c0 .1.1.1.1.2 5.1-1.4 10.3-2.5 15.7-3.2 0-.2.4-.2.5-.1l2.4-.3c.1-.3.3-.7.7-1-.6-1-1.1-.3-1.7-1.1.4-1.8 1.7-4 3.9-3.3-.3-1.1.1-1.4.3-1.9.5-.9 2.4 1.4 1.9-.3.4-.7 1.7.8.6 1.1 2.3.9 1.4 2.1 3 3L125 19c-.7-.5-.8-.9-.3-1.4-1.2-.1-.9-1.8-2.2-1.7-.3.5.5.2.8.8-.9.8-1.8-.1-2.8-.5-.8 1.3-1.7.7-2.5.8-.5 1.1.5 2.2 1.1 3.3-.5.3-.7.6-.8.9h.5l.1-.1v.1c.4 0 .7-.1 1.1-.1.1-.4.2-.7.5-1.1.5.1 1 .3 1.5.9 1.3-.1 2.5-.1 3.8-.1-.1-.1-.2-.2-.4-.3.3-.2.5.1.8.2h2c4.3 0 8.6.3 12.8.8h.2v-.1c.2 0 .4.1.5.2 9.3 1.2 18.2 3.5 26.7 6.9.2-.3.3-.7.5-1 0 .4.1.8 0 1.3.8.3 1.6.7 2.5 1 .2-.1.4-.1.6-.4.2.2.2.5.2.7 2.3 1 4.5 2.1 6.7 3.3.4-.6 1.4-.4 1.3-1.4.8.8 1-.2 2.2 0-.1 1.4.3.1 1.1.4-.3 1 .7 3.3-.6 3.3.2.1.3.2.5.3.3-.2.7-.6.5-1 1 .4 1.9 1 1.8 2.5l3.3 2.1c-.1-.8.2-1.2 1.1-1-.4.3-.2 1.1-.9 1.1.2.1.3.2.5.3.6 0 1.2.3 1.2.9 6.7 4.8 12.8 10.3 18.3 16.4.1-.4.4-.2.4 0s-.1.2-.2.2c.4.4.7.9 1.1 1.3.2-.4.5-.6 1.1-.6-.2.4-.3.9-.5 1.3.2.2.4.5.6.7.1-1 .7-1.6 1.8-1.6.3.4.5 1 .4 1.8-.3-.2-.7-.3-.7-.7-.7 0-.5.8-1.3.7 2.1 2.6 4.2 5.3 6.1 8.1.7 1.2 1.9 1.8 3.2 2.4-.2.7-.7.8-1.2.7l.9 1.5c.2 0 .4.3.3.4 1.9 3.2 3.7 6.4 5.2 9.7 6.4 13.8 10 29.2 10 45.4 0 12.5-2.2 24.5-6.1 35.7.3-.3.7-.5 1.1-.6v-1.8c.5.2.7.8.7 1.4.9-.2 1.7-.5 2.2-1.1.7.7.3.7 1.5.4-.2.9.7.8.4 1.8-.6.1-.6-.3-1.1-.4-.2.8.5.7 1.1.7-.3.3-.7.6-1.1.7.8.8.7 1.4-.4 1.8 1.2.1.1 1.6.7 2.9 1.1 0 .6 1.6 1.8 1.5-.8.8.2 1 0 2.2-1.4-.1-.1.3-.4 1.1-1-.3-3.4.7-3.3-.7-.9.2 0 1.4.7 1.1-.4 1.1-1 1.9-2.5 1.8 1-.7.8-2.5-.4-2.9-1.1.2.3.8 0 1.5-2.3.1-.1-2.1-2.9-1.5.7-.7-.2-.7-.4-1.4.1-.9.6-1.4.4-2.5 2.3.7 1.3-.4 1.5-1.1 1.1-.4.6.8.7 1.4.8.2 1-.3 1.5-.4 0-.4-.4-.3-.7-.4-.1-.6.3-.6.4-1.1-.3-1.1-1.2.2-1.8 0 .1-.4-.1-.6-.4-.7l1.1-1.1c-.3-.3-.7-.5-1.1-.6-2.4 6.5-5.5 12.8-9.1 18.6.1.1.2.3.2.5.4-.3.8 0 1.1.4.5-.2 1-.5 1.4-.9.8.7.3.7 1.6.4v.3c1.4-1.2 2.8-2.3 4.3-3.2l1.6-1c-.4-.3-1.2-.1-1-1 .8-.2 1.1.1 1.1.7.1-.1.2-.1.3-.1v.2l.8-.5c-.3-.1-.6-.4-.5-1h1.5v.4l.1-.1c.1-.1.2-.1.2-.1l3.3-2c-.2-.2.3-.5.4-.4v.1l.4-.2c.4-.3.9-.6 1.3-.9.2-.6.5-1.4.7-1.8.4.3.6.5.8.5.4-.4.7-.8 1.1-1.2-.2 0-.4.1-.6.1 0-.5 1.5-1.6 0-1.4.2-.6 1.1-.3.7-1.5-1-.1-1 .8-1.1 1.5-1.1-.8-.5-1.1-1.8-.4-.1-.3.1-.3.4-.4-.1-.7-1-.7-1.5-1.1 1.5-.3 3.6-.1 5.4 0-.3.3-.7.6-1.1.7.1.4.7.2.7.7.5-.3.5-1.2.7-1.8.2.3.4.3.6.2.1-.2.3-.5.4-.7 0-.1-.1-.2-.2-.2 0-.2.2-.2.5-.2.1-.2.2-.5.3-.7 0-.1 0-.2.1-.3.2-.4.4-.8.5-1.2-.3 0-.7 0-1.1-.2-1.3.3.1 3.2-1.8 2.9-.1-.6.3-.7.7-.7-.6-.6-.9-1.5-.7-2.9.9-.4 2.3-.3 3.3-.5 1-3.5 1.2-7.2.3-10.7-.2.3-.2.4-.1.5zm-2.7-51c.2-.2.5.3.4.4-.2.2-.5-.3-.4-.4zm-.7.8c.2-.2.5.3.4.4-.3.1-.5-.3-.4-.4zm-.8-7.3c-.4 0-.3-.4-.4-.7.4 0 .3.4.4.7zm-.3 10.9c.2-.2.5.3.4.4-.3.1-.5-.3-.4-.4zm-30.9-56c.2-.2.5.3.4.4-.2.2-.5-.3-.4-.4zm-3.3-15.6c-.2.2-.5-.3-.4-.4.2-.1.5.3.4.4zM83.2 26.6c-.2.2-.5-.3-.4-.4.2-.1.5.3.4.4zm33.8-6.2c.2-.2.5.3.4.4-.2.2-.5-.3-.4-.4zm9.8 0c-.4-.1-.2-.4 0-.4.4.1.2.4 0 .4zm10.9-1.4c-1-1.1 1.1 1 0 0zm1.4-5.1c-.2.2-.5-.3-.4-.4.3-.2.6.3.4.4zm.4-1.1c.1-.9.6.5 1.5 0-.1.9-1.3.1-1.5 0zm2.2.7c-.4 0-.3-.4-.4-.7.4 0 .3.4.4.7zm-.4 1.5c1.1.8-.4 2.3 0 0zm1.9 0c-.2.2-.5-.3-.4-.4.2-.2.5.3.4.4zm1.4 4c-.5-.1-.4-.7 0-.7.2.3.4.6 0 .7zm19.3 6.5c-.2.2-.5-.3-.4-.4.2-.1.5.3.4.4zm2.5.4c-.2.2-.5-.3-.4-.4.2-.2.5.3.4.4zm1.1 2.2c-.2.2-.5-.3-.4-.4.2-.2.5.3.4.4zm4.7.7c-.4-.1-.2-.4 0-.4.4.1.2.4 0 .4zm.8.7c-.2.2-.5-.3-.4-.4.2-.1.5.3.4.4zm1.4-1.4c-.2.2-.5-.3-.4-.4.2-.2.5.3.4.4zm.4 3.2c-.4-.1-.2-.4 0-.4.4.1.2.4 0 .4zm1.1-3.2c.2-.2.5.3.4.4-.3.1-.5-.3-.4-.4zm.7 2.5h-.7v-.7h.7v.7zm.7 1.5c0-.6.4-.8.4-1.5 0-.3-.5-.3-.7-.4-.2-.8.7-.5.7-1.1 1.4.6.6 1.3 1.1 2.9h-1.5zm-.7-3.7c.6-.5 1-1.2 2.2-1.1.5 1.6-1.2 1-2.2 1.1zm5.4 1.8c-.1.1.1.7 0 .7-.4.2-.6-.5-.4-.7.3-.2 1.9-1.3.4 0zm10.2-2.9c.2-.2.5.3.4.4-.2.2-.5-.3-.4-.4zm-.4 4.8c.1.3-.1.3-.4.4h-.7v-1.1c.5.1.6.6 1.1.7zm-.7-1.5h-.7v-.7h.7v.7zm-2.2-2.2c-.3-1.3 1.2-.6 1.4-.4 0 .6-.8.4-1.4.4zm1.1 3.7c.2-.2.5.3.4.4-.2.1-.5-.3-.4-.4zm-4 .3c.2-.2.5.3.4.4-.2.2-.5-.3-.4-.4zm-1.8 1.5c.4 0 .3.4.4.7-.4 0-.3-.4-.4-.7zm.4-1.1s-.1 1-.4.7c-.3-.3.9-1.7.4-.7zm.3 1.4c.2-.4.5-.7 1.1-.7.2.8-.5.7-1.1.7zm1.1 1.9c-.5-.2 0-.3 0-.7.5 0 .4.7 0 .7zm1.5 1.8c-.8.2-.5-.7-1.1-.7-.1-.7 1.4-.1 1.1.7zm.7 0v-1.5c1.4-.3 1.4 1.8 0 1.5zm1.5-3.3c-.2.2-.5-.3-.4-.4.2-.1.5.3.4.4zm0-1.4c.9-.1 1.6.1 1.5 1.1-.8-.2-1.7-.2-1.5-1.1zm1.4 6.1h-.7v-.7h.7v.7zm-.7-1.4c-.5.1-.1-2 1.1-1.5-.1.8-.7 1-1.1 1.5zm.7-1.8c.2-.4.5-.7 1.1-.7-.1.4-.5.7-1.1.7zm1.5 4c.4.1.3.7.4 1.1-.5-.1-.4-.7-.4-1.1zm0-3.7c.4 0 .3.4.4.7-.4 0-.3-.4-.4-.7zm-.4-1.8c.5-1.2.4-3.6.7-4-.2-.4-.8-.4-.7-1.1 1.1.3 1.5 1.4 1.8 2.5-1.7-.7.1 2.7-1.8 2.6zm2.2-1.1c-.9-1.2 1.2.9 0 0zm5.8 4.7v1.5c-1.4.3-1.4-1.8 0-1.5zm-2.5-5c-.2.2-.5-.3-.4-.4.2-.2.5.3.4.4zm0 1.4c-.2.2-.5-.3-.4-.4.2-.1.5.3.4.4zm-.8-6.5c-.8-1.2 1.3.8 0 0zm0 1.4c-.8-1.2 1.3.9 0 0zm-.3 6.9c.2-.2.5.3.4.4-.3.2-.5-.3-.4-.4zm-.8.7c-1.1 1 1-1.1 0 0zm1.1 3.3c-1.1-.2.3-.8 0-1.5 1.2.4.3.9 0 1.5zm.8-2.2c-.5-.2 0-.3 0-.7.4.1.3.7 0 .7zm.7-8.3c-.2.2-.5-.3-.4-.4.2-.2.5.3.4.4zm.4 12.7c-.5-.1-.4-.7 0-.7.5.1-.1.3 0 .7zm.3-6.9c.2-.2.5.3.4.4-.2.1-.5-.3-.4-.4zm.7 5.8c-1.3-.1 0-1-.7-1.1.9-.2 1.5-.3 1.8-1.8.5.1.3.9.4 1.5-.6-.1-.7.3-.4.4 0 .6-1.2.2-1.1 1zm1.9-.3c-.2.2-.5-.3-.4-.4.2-.2.5.2.4.4zm0-3c.4 0 .3.4.4.7-.4.1-.4-.4-.4-.7zm.3-1.4c-.2.2-.5-.3-.4-.4.2-.2.5.3.4.4zm.7-1.1c.4-.3.1.7 0 .4.8 2-.8.3 0-.4zm1.5 3.6c-.7.1-.8-.4-1.5-.4-.1-.6 2.1-.6 1.5.4zm0 8c-.2.2-.5-.3-.4-.4.2-.1.5.3.4.4zm2.9-6.1c-.9-1.3 1.2.8 0 0zm1.5 14.8c-.2.2-.5-.3-.4-.4.2-.1.5.3.4.4zm7.6 6.2c.4 0 .3.4.4.7-.4 0-.3-.4-.4-.7zm2.5 7.3c-.4-1.3 1.6-.6 1.8-.4.1.8-1.2.2-1.8.4zm2 3c-.2-.2.3-.5.4-.4.1.3-.3.5-.4.4zm2.4 2.4c-.2.2-.5-.3-.4-.4.2-.1.5.3.4.4zm2.9-.3c-.6-.1-.8-.6-.7-1.5 1.1-.3.6.8.7 1.5zm.5 5.2c-.2-.2.3-.5.4-.4.1.2-.3.5-.4.4zm1-2.7c.2-.2.5.3.4.4-.3.2-.5-.3-.4-.4zm.1 5.2c-.2-.2.3-.5.4-.4.1.3-.3.5-.4.4zm.7-5.4c-.2-.2.3-.5.4-.4.2.2-.3.5-.4.4zm4.7 11.6c-.2-.2.3-.5.4-.4.2.2-.3.5-.4.4zm.4 69.4c-.1.4-.7.3-1.1.4.1-.4.7-.3 1.1-.4zm-.4 4.4c-.2-.2.3-.5.4-.4.2.2-.3.5-.4.4zm0-4.7c-.2-.2.3-.5.4-.4.2.2-.3.5-.4.4zm-4 17.8c-.3.2-.6.4-.7 0 .1-.5.7-.4.7 0zm-5.1 3.6c1.2-1-.9 1.1 0 0zm-.7 2.5c.2-.3.4-.7 0-.7.3-.6.7-.1 1.1 0-.1.3-.4.4-.4.7h-.7zm1.1 3.3v-1.1c1.1-.5 1.1 1.7 0 1.1zm.7-3.3c-.2-.2.3-.5.4-.4.2.3-.3.5-.4.4zm0-5c.2-.5.3 0 .7 0 0 .4-.6.3-.7 0zm1.1 4.7c-.2-.2.3-.5.4-.4.2.2-.3.5-.4.4zm1.8 1.1c-.3-1.1 1.3-.4.7-1.8.9.2.4 2.2-.7 1.8zm1.5-2.9c0-.4.4-.3.7-.4 0 .4-.4.3-.7.4zm.4-1.5c.1-.4.4-.2.4 0-.1.4-.4.2-.4 0zm.3-1.4c.1-.4.4-.2.4 0-.1.4-.4.2-.4 0zm1.1 2.5c-.2-.8.7-.5.7-1.1.7-.1.1 1.4-.7 1.1zm1.8-1.5c.2-.5.3 0 .7 0 0 .5-.7.4-.7 0zm2.2-1.8c0 .4-.4.3-.7.4 0-.4.4-.3.7-.4zm-.3.8c.4.2.7.5.7 1.1-.8.1-.7-.6-.7-1.1zm1.4-.4c-.1 0-1-.1-.7-.4.3-.3 1.7.9.7.4zm2.5-2.9c.2.3 1.3 1.9 0 .4-.1-.1-.7.1-.7 0-.2-.5.6-.6.7-.4zm2.6-16.4c.2.2-.3.5-.4.4-.2-.2.3-.5.4-.4zm0 1.8c.2.2-.3.5-.4.4-.2-.2.3-.4.4-.4zm0 7c.2.2-.3.5-.4.4-.2-.3.3-.5.4-.4zm-.7-13.1c.2.2-.3.5-.4.4-.2-.3.3-.5.4-.4zm-.8-1.1c-.3.2-.6.4-.7 0 .1-.5.7-.4.7 0zm-1.1 6.9c0 .4-.4.3-.7.4 0-.4.5-.3.7-.4zm.4 9.1v.7h-.7v-.7h.7zm-.7-18.9c.2.2-.3.5-.4.4-.2-.2.3-.5.4-.4zm-.1-39.8c.2-.4.5-.7 1.1-.7.1.8-.6.7-1.1.7zm1.1-9.4v-1.1c.6 0 .8.4 1.4.4-.1.6-.6.8-1.4.7zm.7-4c-.6.7-1.2 1.4-2.6 1.5.5-.9 1.5-1.2 2.6-1.5zm-2.4 22.7c.2.2-.3.5-.4.4-.2-.3.3-.5.4-.4zm-.8 36.3c.3-.4 1.3-.1 1.1-1.1.9 1-.2 2.9-1.4 2.9.3-.4.5-1 .3-1.8zm1.1 12c-.1.4-.4.2-.4 0 .1-.4.4-.2.4 0zm-3.2-7.7c-.2-.2.3-.5.4-.4.1.3-.3.6-.4.4zm.3 3.3c.1-.4.4-.2.4 0-.1.4-.4.2-.4 0zm.7-3.3c.1-.7 1.4-.3 1.5-1.1.9.1-.5.6 0 1.5-.7.1-.8-.4-1.5-.4zm1.1 1.5c-.2-.2.3-.5.4-.4.2.2-.3.5-.4.4zm0 2.6c.1-.3-.1-.3-.4-.4.1-.4.7-.2.7-.7.4.1.2.4 0 .4-.1.4.1.6.4.7-.1.5-1.1.1-1.1.7-.5-.3-.2-.9.4-.7zm-.3 4.3c-.2-.2.3-.5.4-.4.1.2-.3.5-.4.4zm.3 3.3v-1.5c.7-.1.8.4 1.5.4.3 0 .3-.5.4-.7.8-.2.5.7 1.1.7-.7 1.4-1.4.6-3 1.1zm2.9-6.2c.2.2-.3.5-.4.4-.1-.2.3-.5.4-.4zm-.1 4.6c-.4-.1-.2-.4 0-.4.4.1.2.4 0 .4zm-.2-14.4c-.3-.4.3-.7.4-.7.8-1.4-.2.9-.4.7zm1.1.4c.2.2-.3.5-.4.4-.2-.3.3-.5.4-.4zm-.4 9c.1-.4.4-.2.4 0-.1.5-.4.2-.4 0zm.7 3.7c.2.2-.3.5-.4.4-.1-.3.3-.5.4-.4zm-.3.7c.5.6 1.2 1 1.1 2.2-1.6.5-1-1.2-1.1-2.2zm1.4-15.6c-.2-.2.3-.5.4-.4.2.2-.3.5-.4.4zm0-3.7c-.2-.2.3-.5.4-.4.2.3-.3.5-.4.4zm1.1 17.1c-.2-.2.3-.5.4-.4.2.2-.3.5-.4.4zm0-8c-.2-.2.3-.5.4-.4.2.3-.3.5-.4.4zm.4-2.5c-.2-.2.3-.5.4-.4.1.2-.3.5-.4.4zm1.8 2.9c-.5-.1-.3-.9-.4-1.5 1.3-.3.7 1.2.4 1.5zm-13.8 15.6c.2-.5.5-.9.7-1.5-1.2-.5-.3 1.2-1.5.7-.2-.6 1.1-1.5 0-1.8.1.8-1.3.2-1.8.4.3.7-1.1 1.2 0 1.5.2-.4.4-.8.7-1.1 0 1 .6.7 0 1.5 1.2-.4 1-.2 1.9.3zM117.6 8.7c-.1 0-.1 0 0 0-.1.1-.1.1 0 0zM80.8 31.1c0-.1-.6-.3-.6 0 0 .2.6.3.6 0zm-1.7-2.7l-1.7-1.7c-.3.4-.8.7-.6 1.1 1.3-.7 1 1.1 2.3.6zm155.4 137.2c-1.3.5-2.2-1.2-2.5-.4.4.1.6.4.7.7-.1.4-.7.8 0 1.1-.3-1.3 1.5-.6 1.8-1.4zm-.7 7.2c-.4.1-1-.1-1.1.4.2 0 .4.1.4.4-.2 0-.4.3 0 .4 0-.6.5-.7.7-1.2zm.3-1.8c-.3 1.3-1.3-.1-1.8 1.1h2.2c-.1-.4.1-1-.4-1.1zm-1.4 4.7c.1.1.5-.2.4-.4-.2 0-.6.2-.4.4z"/><path class="st1" d="M74 207.5c-.1.2-.2.4-.3.7.2.8 1.8.3 2.3.9v1.1c0 .5.9.2.9.9-.3.1-.4.3-.7.3-.5 0-.7-.4-1-.5-.7-.2-.6.4-1.1.5-.1 0-.2 0-.3-.1 1.2.8 2.4 1.6 3.6 2.3.2-.2.4-.4.5-.7-.1-.8-.7-1.2-.7-2.1.4-.3.8-.4 1.2-.4-1.4-.9-2.9-1.9-4.4-2.9zM33.4 151c-.5-.9 1.1-.7 1.5-1-1.5-6.8-2.4-13.9-2.4-21.2 0-27.1 11.3-51.6 29.4-69-.7-.3-1.4-.8-2.1-1.8-.1-.2 0-.4 0-.6-18.8 18-30.6 43.4-30.6 71.5 0 5.4.4 10.6 1.3 15.7.1.1.2.1.2.2h-.2c1.6 10 4.8 19.6 9.2 28.4-.1-.7-.4-1.2-.3-2 .4-.7 1.3-1 2.3-.7.1 0 .2-.1.2-.2-2.9-6.1-5.2-12.6-6.8-19.3-.2.2-1.2.1-1.7 0zm7.4 17.8c0 .2-.2.1-.2 0 .1-.2.2-.1.2 0zm31.9 39c-.1-.2-.2-.4-.5-.3-.4.1 0 .9-.4 1.1-.8-.1.2-.8-.4-1.2-.8 0-.7.8-1.6.7 0-1.2.6-1.9.2-3h.5c-1.8-1.4-3.6-2.8-5.3-4.3v.8c-.3-.1-.6-.2-.8-.3-.1 0-.1-.1-.2-.1.2-.3.1-.7.4-.9-.3-.3-.7-.6-1-.9 0 .1-.1.2-.1.3.1.2.2.6.2.9-.2-.4-.2-.8-.3-1.3-.3-1.4-1.5-1.4-1.9-2.5-.4-1-1.5-1.8-2.6-2.2-1-1.1-2-2.1-3-3.3-.3.1-.5.4-1 .6-1.3-.1-2.2-.6-3-1.2.1-.9-.2-1.5-.5-1.9.5-1.3-.4-1.5-.4-2.8-.5-.4-1.9-.1-1.7-1.2.4-.4.7.1 1.3 0-2.5-3.4-4.8-7.1-6.8-10.8-.3.2-.3.7-.5 1-.1 1.1.6 1.4.7 2.3.1.9 0 1.6-.2 2.3.3.4.3.9.3 1.4 2.4 3.8 5 7.5 7.9 10.9.8.3 1.5.8 2 1.3.3.5.3.9.3 1.4.9 1 1.8 2 2.7 2.9.1 0 .1 0 .1-.1v-1.1h.1c.7.9 1.5 1.6 2.5 2.3v.3c-.1.9.1 1.6.8 2.1.9.6 1.7.5 2.6 1.2.7.5 1.3 1 2.1 1.2.6.1.9-.2 1-.6h.1c0 .7-.1 1.5.3 1.8.7.1.9-.4 1.6-.4.3.4.7.7 1.2.9.1.6-.4 1 0 1.4-.3.3-.6.7-.8 1.2 1.3 1 2.6 1.9 3.9 2.8.1-.2.4-.2.5-.5-.1-.4-.6-.5-.7-.9-.2-.8.4-.7.4-1.3zm116.6-5c-.2 1.5-1.1 2.4-2.6 2.6.1-.8 1-.7 1.5-1.1.1-.4.1-.8.2-1.1-6.3 5.1-13.2 9.3-20.6 12.7.3-.1.6-.1.9 0-.2 1.1-2 .5-1.5 2.2-.7-.6-.4-1.7.4-2.1-12 5.4-25.3 8.5-39.4 8.5-4.1 0-8.1-.3-12-.8-.2.3-.4.5-.8.6-.7.1-.9-.3-1.5-.4-.5-.4-1.3-.5-1.8.1 0 .1-.1.1-.1.2-.4.4-.5 1.2 0 1.6.1 0 .1.1.1.1.7.5 1.7.4 2.1-.2.2.3.3.6.3.8v.2c4.5.6 9 1 13.7 1 2.7 0 5.3-.1 7.9-.3 0-.2-.1-.4-.2-.5-.3-.4-.9-.4-.9-1 .8-.9 1.4.3 1.9.7.6 0 1.4-.1 1.6.3.5-.1-.3-.8.2-1 1.3.2 3.1-1.9 3.3.3-.4.1-1.2.3-1.6 0-.7.1-.7.8-1.4.9 7.4-.8 14.6-2.4 21.4-4.8-.1-.8.6-1.6 1.2-1.2 0 .3 0 .6-.1.8l2.4-.9c-.2-.6.1-1.5 1-1.5-.1.3-.4.4-.4.8.1.1.1.3.2.4 3.6-1.4 7.1-3.1 10.5-4.9h-.2v-1.1h1.1c.1.4-.1.6-.2.7 4.7-2.6 9.1-5.5 13.2-8.8-.2.1-.4.1-.6.2 0-.4.5-.3.8-.4 0 .1 0 .1-.1.2 1.6-1.3 3.2-2.6 4.8-4h-.9c.8-.4.3-1.9 1.5-1.9 0-1.1.1-2.4.5-3.5-1.9 1.9-3.9 3.7-6 5.4 0 .1.1.1.2.2zm-72.5 22.5c-.6 0-1.2 0-1.1-.7.5-.3 1.4-.1 1.1.7zm31.1-.1c-.7.2-.6-.8-.3-1.1h.5c.3.2.3 1.1-.2 1.1zm3.5-2.3c-.2-1.1 1.8-1.2 1.6 0-.4.1-1.2.3-1.6 0zM207.3 69c-.1.2-.3.3-.4.2-.2-.2.1-.4.3-.4-1.1-1.4-2.2-2.8-3.3-4.1 0 .1 0 .2.1.4-.4 0-.4-.3-.7-.4V64h.1c-7.6-8.8-16.7-16.2-27-21.9.1.3-.3.6-.6 1-.2-.4-.2-.8.2-1.2-11.6-6.4-24.7-10.5-38.5-11.8 0 .3-.5.2-.5 0V30c-.9-.1-1.7-.2-2.6-.2-.4.1-.9 0-1.2-.1h-.7c-.4.3-.7.3-1.1.1-.5.8-.8 1.9-1.8.8.3 0 1.1-.4 1.5-.9-.9 0-1.7-.1-2.6-.1-8.3 0-16.5 1-24.2 3l-.4.4-.2-.2c-6.1 1.6-12 3.7-17.5 6.4v.4c-.1 1.1-.1-.3 0-.4-2.3 1.1-4.6 2.3-6.9 3.6h-.1c-1.5.9-3 1.8-4.4 2.7.1.2.1.4.1.7-.3.3-.7.2-1.1 0-3.5 2.4-6.9 5-10.1 7.7.4.6.7 1.4 1.4 2.1-.1.3.1.6 0 .9 4.7-4.2 9.9-7.9 15.4-11.1-.2 0-.3-.1-.3-.2 0-.3.5-.1.5 0v.1c2-1.2 4-2.2 6-3.2 0-.1 0-.2.1-.3.1 0 .2 0 .3.1 1-.5 2.1-.9 3.1-1.4-.1-.1-.2-.1-.3-.2.5.1 1-.4 1.6-.3 1.3-.6 2.7-1.1 4-1.6 0-.1.1-.1.2-.1.3-.1.7-.2 1-.3-.2-.1-.3-.2-.5-.3.2-.2.5.1.7.2 9.9-3.4 20.5-5.3 31.5-5.3 52.9 0 95.8 42.9 95.8 95.8 0 12.7-2.5 24.9-7 36 .5.4 1.9 0 1.4 1.4-.6-.2-1.3-.2-1.8-.5-3.2 7.8-7.5 15-12.6 21.6.2-.1.4-.1.5-.1 0 .4-.4.3-.7.4-2 2.6-4.1 5-6.3 7.4.1 0 .2.1.3.1-.1.5-.3.2-.6.1l-.4.4c.5.6-.1.9-.5 1.3-.1 1.1 2.4-.5 1.9 1.1-.9-.1-1.8-.1-2.2.4.7.7 0 .9 0 1.9.1.9 1-.4 1.1-.7.2 0 .3 0 .3.1 1.4-1.4 2.8-2.8 4.1-4.2-.4-.2.4-.6-.3-.7.1-.4.7-.3.7-.7.3 0 .3.3.3.6.7-.8 1.3-1.6 2-2.3-.2.2-.5.3-.8.3-.5-.5-.5-1.4.4-1.5-.2-.8-1.1-.7-.4-1.5.3-.3.8-.4 1.5-.4 1.2.3-.7.5-1.1.4v.7c.1.5 1.1.5 1.1 0 .3.1.1.9-.3 1.5.4-.5.9-1.1 1.3-1.6-.2 0-.3 0-.3-.2.1-.4.5-.4.7-.2l.9-1.2c0-.3.1-.7.3-.9.1 0 .2.1.3.2 2-2.7 3.9-5.6 5.7-8.5-.5.1-1.1-.1-1.4-.6 0-.9 1.2-.8 2.2-.7 8.3-14.5 13-31.2 13-49-.1-22.9-7.6-43.6-20.2-60.2zM101.9 221.1c-.6-.2-1.3-.3-1.9-.6-.6-.3-1.2-.4-1.7-.6 0-.1 0-.2-.1-.3-1.7-.6-3.3-1.2-5-1.8-.2 0-.3 0-.5-.1v-.1c-.1 0-.2-.1-.3-.1 0 .2 0 .4.1.5-.1.1-.1.2-.2.2-.3-.5-.9-.8-1.5-.6l-.1.1c-.4-.1-.7-.2-1.1-.1-.4.1-.8.6-.6 1.1.2.6.6.8 1 1.1.1.1.1.2.2.3 0 0 .1 0 .1.1.1 0 .1.1.1.1v-.1c.2.1.5.2.8.2.9.4 1.8.8 2.8 1.1.1 0 .2 0 .3.1 1.2.9 2.6 1.6 4.3 2 1.3.3 2.6.6 3.8.6 1.6.4 3.1.8 4.7 1.2.5-.6 1.1-.9 1.4-1.7.8 0 1-.4 1.2-.7.1-.1.3-.2.4-.4-2.7-.5-5.3-1.1-7.9-1.9 0 .3-.2.3-.3.4zm-15.7-6.2c-.4-.8-1.6-1.1-2.3-.4-.3-.4-.6-.8-1.1-1.1-.5-.3-1.1-.3-1.7-.1-.1-.2-.3-.4-.4-.2-.2.2-.2.4-.4.6-.4.4-.2 1 .3 1.1.6.2 1 .6 1.5.8.4.2.8.2 1.2.3-.1.8.4 1.4 1.1 1.7.7.2 1.5.4 2.2.1.5-.2.8-.7.7-1.2 0-.8-.5-1.3-1.1-1.6zm-2.8.6c0-.4 0-.2 0 0z"/><path class="st1" d="M83.9 123.7l-10.2-19.2v17c0 .4.1 36.7.3 37 .2.2.5.4 1 .5v.6h-8.1v-.6c.5-.1.8-.3 1-.5.2-.2.3-36.5.3-37V98.1c0-.4-.1-.7-.3-.9-.2-.2-.5-.4-1-.5V96h10.7v.7c-.6.2-1 .5-1 1.1 0 .3.1.6.3.9l7.6 14.3 7.7-14.1c.3-.6.5-1.1.5-1.4 0-.6-.3-.9-1-.9v-.7h10.5v.7c-.5.1-.8.3-1 .5-.2.2-.3.5-.3.9v23.5c0 .4.1.7.3 1 .2.2.5.4 1 .5v.6h-8.7v-.6c.5-.1.8-.3 1-.5.2-.2.3-.5.3-1v-17l-10.9 19.2zM130.4 103v12c0 2.7-.5 4.8-1.6 6.1-1.7 2-5 3.1-9.9 3.1-3.2 0-5.9-.5-7.8-1.5-1.4-.7-2.4-1.7-2.9-3.1-.5-1.2-.7-2.7-.7-4.6v-12c0-.4-.1-.7-.3-1-.2-.2-.5-.4-1-.5v-.6h8v.6c-.5.1-.8.3-1 .5-.2.2-.3.5-.3 1v10.9c0 1.3.1 2.2.3 2.9.2.7.6 1.2 1.2 1.7 1.1.9 2.7 1.3 4.8 1.3s3.7-.4 4.8-1.3c.5-.4.9-1 1.1-1.7.2-.7.3-1.7.3-2.9V103c0-.4-.1-.7-.3-1-.2-.2-.5-.4-1-.5v-.6h7.6v.6c-.5.1-.8.3-1 .5-.2.3-.3.6-.3 1zM157.2 103l-2.7 5.3-.5-.3c0-.4-.1-.8-.4-1.1-.8-.7-1.9-1.3-3.4-1.7-1.5-.4-3-.7-4.6-.7-1.3 0-2.5.2-3.5.5-1.5.5-2.2 1.3-2.2 2.3 0 .7.4 1.1 1.1 1.4.7.3 2.1.5 4.1.7l3.2.2c2.8.2 4.9.8 6.4 1.6.8.5 1.5 1.1 2 2 .7 1 1 2.2 1 3.4 0 2.3-1 4.1-3.1 5.5-2 1.3-4.7 1.9-8.1 1.9-3.4 0-6.7-.7-9.9-2.2-.2-.1-.4-.1-.5-.1-.3 0-.5.2-.8.5l-.5-.2 2.3-5.6.5.2v.2c0 .4.1.6.4.9.7.6 1.8 1.1 3.5 1.6 1.7.4 3.3.7 4.9.7 1.4 0 2.7-.2 3.9-.6 1.4-.5 2.1-1.2 2.1-2.2 0-.8-.5-1.4-1.5-1.7-.6-.2-1.8-.4-3.5-.5l-3.2-.3c-1.7-.1-3-.3-3.9-.5-.9-.2-1.7-.5-2.4-1-.9-.5-1.5-1.3-2-2.2-.5-.9-.7-2-.7-3.1 0-2.5 1.1-4.4 3.2-5.7 2-1.2 4.4-1.8 7.2-1.8 1.6 0 3 .2 4.4.5 1.3.3 3 1 4.8 1.8.6.3.9.4 1.2.4.2 0 .5-.1.8-.4l.4.3zM167.7 103v18.6c0 .4.1.7.3 1 .2.2.5.4 1 .6v.6h-8v-.6c.5-.1.8-.3 1-.5.2-.2.3-.6.3-1V103c0-.4-.1-.7-.3-1-.2-.2-.5-.4-1-.5v-.6h8v.6c-.5.1-.8.3-1 .5-.3.3-.3.6-.3 1zM195.2 115.5l3.4 5-.5.3c-.3-.2-.6-.3-.8-.3-.2 0-.8.3-1.6.8-1.9 1.1-3.5 1.8-4.9 2.3-1.4.4-3.1.6-4.9.6-3.7 0-6.7-.9-9.1-2.7-1.3-1-2.4-2.3-3.2-3.8-.8-1.7-1.3-3.4-1.3-5.4 0-2.7.8-5 2.3-7.1 2.4-3.2 6.1-4.8 11.2-4.8 1.9 0 3.5.2 4.9.6 1.4.4 3.1 1.2 4.9 2.3.8.5 1.4.8 1.6.8.2 0 .4-.1.8-.3l.5.4-3.4 5-.4-.3v-.3-.3c0-.7-.9-1.4-2.7-2.2-1.7-.8-3.5-1.2-5.2-1.2-2.5 0-4.5.6-6.1 1.9-1.8 1.5-2.7 3.3-2.7 5.6s.9 4.2 2.7 5.6c1.6 1.3 3.6 1.9 6.1 1.9 1.9 0 3.8-.5 5.7-1.4 1.5-.8 2.2-1.4 2.2-2 0 0 0-.2-.1-.6l.6-.4z"/><path class="st1" d="M84.7 157.5V134c0-.4-.1-.7-.3-.9-.2-.2-.5-.4-1-.5v-.7h8.7v.7c-.5.1-.8.3-1 .5-.2.2-.3.5-.3.9v23.5c0 .4.1.7.3 1 .2.2.5.4 1 .5v.7h-8.7v-.7c.5-.1.8-.3 1-.5s.3-.5.3-1zM97.9 157.6V139c0-.4-.1-.7-.3-1-.2-.2-.5-.4-1-.5v-.6h13.3c2.8 0 5 .3 6.6 1 2.2 1 3.9 2.6 4.9 4.8.7 1.6 1 3.4 1 5.5 0 3.9-1.2 6.8-3.5 8.8-1 .9-2.3 1.5-3.7 1.9-1.4.4-3.2.6-5.3.6H96.6v-.6c.5-.1.8-.3 1-.5s.3-.4.3-.8zm5.4-2.1h5.8c2.7 0 4.6-.6 5.8-1.8 1.3-1.3 1.9-3.1 1.9-5.4 0-2.3-.6-4.2-1.9-5.4-.6-.6-1.4-1.1-2.3-1.4-.9-.3-2.1-.4-3.5-.4h-5.8v14.4zM132.6 150v5.5H147c.4 0 .7-.1 1-.3.2-.2.4-.5.5-1h.6v6.7h-.6c-.1-.5-.3-.8-.5-1-.2-.2-.6-.3-1-.3h-21.2v-.6c.5-.1.8-.3 1-.5s.3-.6.3-1V139c0-.4-.1-.7-.3-1-.2-.2-.5-.4-1-.5v-.6h20.6c.4 0 .8-.1 1-.3.2-.2.4-.5.5-1h.5v6.7h-.5c-.1-.5-.3-.8-.5-1-.2-.2-.6-.3-1-.3h-13.8v5h8.6c.4 0 .7-.1 1-.3s.4-.5.6-1h.5v6.6h-.5c-.1-.5-.3-.8-.5-1-.2-.2-.6-.3-1-.3h-8.7zM169.8 154h-10.5l-1.2 2.5c-.3.6-.4 1.1-.4 1.4 0 .6.4 1.1 1.3 1.2v.6h-8.4v-.6c.5-.1.9-.2 1.1-.5.3-.2.5-.7.9-1.4l8.3-16.8c.3-.6.5-1.2.5-1.7 0-.6-.4-1-1.1-1.3v-.6h8.8v.6c-.7.3-1.1.8-1.1 1.4 0 .4.2 1 .5 1.6l8.6 16.3c.5.9.8 1.5 1.1 1.7.3.3.7.4 1.2.6v.6h-9.3v-.6c.9-.1 1.3-.6 1.3-1.2 0-.4-.2-.9-.5-1.6l-1.1-2.2zm-1.7-3.2l-3.7-7.3-3.5 7.3h7.2z"/></svg>