<svg id="Lag_1" xmlns="http://www.w3.org/2000/svg" viewBox="0 0 167.6 90.8"><style>.st0{fill:#ededed}</style><path class="st0" d="M75.6 37.5h-5.5V19.8l-.8 2.4-6.2 15.3h-4.6l-6.2-15.3-.8-2.4v56.6h-5.4v-67h6.2l7.9 18.1.6 1.6.6-1.6 7.9-18.1h6.3v28.1zM103.1 26.2c0 3.7-1 6.6-2.9 8.7-2 2.1-4.7 3.1-8.3 3.1-3.6 0-6.4-1-8.3-3.1s-2.9-5-2.9-8.7V9.5h5.4v16.7c-.1 1.7.4 3.5 1.4 4.9 2.4 2.3 6.3 2.3 8.7 0 1-1.4 1.5-3.2 1.4-4.9V9.5h5.4l.1 16.7zM116.3 8.9c2.3-.1 4.5.6 6.2 2.1 1.5 1.4 2.4 3.5 2.5 6.3h-5.5c0-1-.3-1.9-1-2.6-1.3-1.1-3.2-1.2-4.6-.1-.8 1-1 2.4-.5 3.6.2.4.5.7.9 1l1.5.8 2.2.8c1.3.4 2.5 1 3.7 1.6.9.5 1.8 1.1 2.5 1.9.6.7 1.1 1.4 1.4 2.3.3.9.4 1.9.4 2.8 0 1.2-.2 2.5-.7 3.6-.4 1-1.1 1.9-1.9 2.7-.8.7-1.8 1.3-2.9 1.6-1.2.4-2.4.6-3.6.6-1.4 0-2.9-.2-4.2-.7-1.1-.4-2.1-1.1-3-1.9-.8-.8-1.5-1.8-1.9-2.9-.5-1.2-.7-2.4-.7-3.7h5.4c.1 2.8 1.6 4.2 4.3 4.2 1 .1 2-.3 2.7-.9.6-.6.9-1.4.9-2.3 0-.9-.4-1.7-1.1-2.3-1.1-.8-2.4-1.4-3.7-1.8-1.1-.4-2.2-.8-3.3-1.4-.9-.5-1.8-1.1-2.5-1.8-.7-.6-1.2-1.4-1.6-2.3-.4-1-.5-2-.5-3.1 0-1.2.2-2.3.6-3.4.4-1 1-1.9 1.7-2.6.8-.7 1.7-1.3 2.7-1.7 1.1-.3 2.4-.5 3.6-.4zM135.4 37.5H130v-28h5.4v28zM153.4 8.9c1.6 0 3.2.2 4.7.7 1.3.4 2.6 1.1 3.7 2 1 .8 1.9 1.9 2.6 3 .7 1.2 1.3 2.5 1.6 3.9h-5.9c-.4-1.3-1.2-2.5-2.3-3.3-1.3-.9-2.8-1.3-4.4-1.2-1.1 0-2.3.2-3.3.7-1 .5-1.9 1.1-2.6 2-.7.9-1.3 1.9-1.7 3-.4 1.2-.6 2.4-.6 3.7 0 1.3.2 2.6.6 3.8.4 1.1.9 2.1 1.7 3 .7.9 1.6 1.5 2.6 2 1.1.5 2.2.7 3.4.7 1.6.1 3.3-.4 4.6-1.3 1.1-.9 2-2.1 2.4-3.4h5.7c-.6 2.8-2.1 5.3-4.3 7.2-2.4 1.8-5.4 2.8-8.4 2.6-1.9 0-3.8-.3-5.6-1.1-1.7-.7-3.2-1.7-4.4-3-1.3-1.3-2.2-2.9-2.9-4.6-1.4-3.7-1.4-7.9 0-11.6.7-1.7 1.6-3.3 2.9-4.6 1.2-1.3 2.7-2.3 4.3-3 1.7-.8 3.6-1.2 5.6-1.2z"/><path class="st0" d="M64.5 76.4h-5.4v-28h5.4v28zM80.4 48.4c2 0 4 .3 5.9 1 1.7.6 3.2 1.6 4.5 2.9 1.3 1.3 2.2 2.7 2.9 4.4 1.3 3.7 1.3 7.7 0 11.4-.7 1.7-1.6 3.2-2.9 4.4-1.3 1.3-2.8 2.3-4.5 2.9-1.9.7-3.9 1-5.9 1H70.1v-28h10.3zm-4.9 5.1v17.8h4.9c2.4.2 4.7-.7 6.4-2.3 1.6-1.8 2.4-4.2 2.2-6.6.2-2.4-.6-4.8-2.2-6.6-1.7-1.6-4-2.5-6.4-2.3h-4.9zM114.8 53.5h-10.5v5.9h9.1v5.2h-9.1v6.7h10.5v5.1H98.9v-28h15.9v5.1zM144.4 76.4h-5.9l-2.3-6.2h-11l-2.2 6.2h-5.9l10.7-28h5.9l10.7 28zm-14.1-19.7l-3.3 8.7h7.6l-3.3-8.8-.5-1.6-.5 1.7zM15.8 75.4h-3.2l-.8-3.8h4.8zM14.3 1.5H14C7 1.6 1.4 7.2 1.4 14.2v.2c0 4.1 2 8 5.4 10.3h14.8c3.3-2.4 5.3-6.2 5.3-10.3v-.3c-.1-6.9-5.7-12.5-12.6-12.6z"/><path class="st0" d="M24.7 14.6c-.2 0-.4-.2-.4-.4 0-5.5-4.5-10-10-10-.2 0-.4-.2-.4-.4s.2-.4.4-.4c5.9.1 10.7 4.9 10.8 10.8 0 .2-.2.4-.4.4zM20.5 89.3c-1.1 0-2.1-.3-3-.8-1.9-1.1-3.3-3.3-4-6.5-.3-1.4-.5-2.9-.5-4.3v-1.3h2.5v1.2c0 1.3.2 2.6.5 3.8.4 1.7 1.2 4 2.8 4.9s3.7.5 6.4-1.1l1.1-.6 1.2 2.1-1.1.6c-1.8 1.2-3.8 1.9-5.9 2zM7.7 26.3l2 42.4c.1 1.2 1 2.1 2.2 2.1h4.5c1.2.1 2.2-.9 2.3-2.1l2-42.4h-13zm7.8 9.5c0 .6-.5 1.1-1.1 1.1h-.1c-.6 0-1.1-.5-1.1-1.1v-3.4c0-.6.5-1.1 1.1-1.1h.1c.6 0 1.1.5 1.1 1.1v3.4z"/><path class="st0" d="M15.1 34.1v-1.7c0-.4-.4-.8-.8-.8s-.8.4-.8.8v1.7h1.6z"/></svg>