<svg id="Lag_1" data-name="Lag 1" xmlns="http://www.w3.org/2000/svg" width="164.8" height="87.8" viewBox="0 0 164.8 87.8"><title>Musicidea-logo3</title><path d="M82.1,50.1H76.6V32.4l-.8,2.4L69.6,50.1H65L58.8,34.8,58,32.4V89H52.6v-67h6.2l7.9,18.1.6,1.6.6-1.6,7.9-18.1h6.3Z" transform="translate(-7.9 -14.1)" fill="#414143"/><path d="M109.6,38.8q0,5.6-2.9,8.7t-8.3,3.1q-5.4,0-8.3-3.1t-2.9-8.7V22.1h5.4V38.8a7.7,7.7,0,0,0,1.4,4.9,6.3,6.3,0,0,0,8.7,0,7.7,7.7,0,0,0,1.4-4.9V22.1h5.4Z" transform="translate(-7.9 -14.1)" fill="#414143"/><path d="M122.8,21.5a8.9,8.9,0,0,1,6.2,2.1q2.3,2.1,2.5,6.3h-5.5a3.7,3.7,0,0,0-1-2.6,3.6,3.6,0,0,0-4.6-.1,3.4,3.4,0,0,0-.5,3.6,3,3,0,0,0,.9,1l1.5.8,2.2.8a22.4,22.4,0,0,1,3.7,1.6,9.9,9.9,0,0,1,2.5,1.9,6.3,6.3,0,0,1,1.4,2.3,9.2,9.2,0,0,1,.4,2.8,8.8,8.8,0,0,1-.7,3.6,7.7,7.7,0,0,1-1.9,2.7,8.2,8.2,0,0,1-2.9,1.6,11.5,11.5,0,0,1-3.6.6,11.6,11.6,0,0,1-4.2-.7,8.5,8.5,0,0,1-3-1.9,8.1,8.1,0,0,1-1.9-2.9,10.6,10.6,0,0,1-.7-3.7H119q.2,4.2,4.3,4.2a3.8,3.8,0,0,0,2.7-.9,3,3,0,0,0,.9-2.3,2.9,2.9,0,0,0-1.1-2.3,12.7,12.7,0,0,0-3.7-1.8,20.9,20.9,0,0,1-3.3-1.4,10.1,10.1,0,0,1-2.5-1.8,6.9,6.9,0,0,1-1.6-2.3,8.2,8.2,0,0,1-.5-3.1,9.2,9.2,0,0,1,.6-3.4,7.6,7.6,0,0,1,1.7-2.6,7.8,7.8,0,0,1,2.7-1.7A10.1,10.1,0,0,1,122.8,21.5Z" transform="translate(-7.9 -14.1)" fill="#414143"/><path d="M141.9,50.1h-5.4v-28h5.4Z" transform="translate(-7.9 -14.1)" fill="#414143"/><path d="M159.9,21.5a14.8,14.8,0,0,1,4.7.7,11.8,11.8,0,0,1,3.7,2,11.4,11.4,0,0,1,2.6,3,14.6,14.6,0,0,1,1.6,3.9h-5.9a6.9,6.9,0,0,0-2.3-3.3,7.1,7.1,0,0,0-4.4-1.2,7.8,7.8,0,0,0-3.3.7,7.4,7.4,0,0,0-2.6,2,9.3,9.3,0,0,0-1.7,3,11.4,11.4,0,0,0-.6,3.7,11.7,11.7,0,0,0,.6,3.8,9.2,9.2,0,0,0,1.7,3,7.4,7.4,0,0,0,2.6,2,7.9,7.9,0,0,0,3.4.7,7.3,7.3,0,0,0,4.6-1.3,7.2,7.2,0,0,0,2.4-3.4h5.7a13.2,13.2,0,0,1-4.3,7.2,12.7,12.7,0,0,1-8.4,2.6,13.8,13.8,0,0,1-5.6-1.1,13.1,13.1,0,0,1-4.4-3,13.9,13.9,0,0,1-2.9-4.6,17,17,0,0,1,0-11.6,13.9,13.9,0,0,1,2.9-4.6,12.9,12.9,0,0,1,4.3-3A13.9,13.9,0,0,1,159.9,21.5Z" transform="translate(-7.9 -14.1)" fill="#414143"/><path d="M71,89H65.6V61H71Z" transform="translate(-7.9 -14.1)" fill="#414143"/><path d="M86.9,61a16.2,16.2,0,0,1,5.9,1,12.7,12.7,0,0,1,4.5,2.9,12.9,12.9,0,0,1,2.9,4.4,16.6,16.6,0,0,1,0,11.4,12.8,12.8,0,0,1-2.9,4.4A12.7,12.7,0,0,1,92.8,88a16.2,16.2,0,0,1-5.9,1H76.6V61ZM82,66.1V83.9h4.9a8.5,8.5,0,0,0,6.4-2.3A9.1,9.1,0,0,0,95.5,75a9.1,9.1,0,0,0-2.2-6.6,8.4,8.4,0,0,0-6.4-2.3Z" transform="translate(-7.9 -14.1)" fill="#414143"/><path d="M121.3,66.1H110.8v5.9h9.1v5.2h-9.1v6.7h10.5V89H105.4V61h15.9Z" transform="translate(-7.9 -14.1)" fill="#414143"/><path d="M150.9,89h-5.9l-2.3-6.2h-11L129.5,89h-5.9l10.7-28h5.9ZM136.8,69.3,133.5,78h7.6l-3.3-8.8-.5-1.6Z" transform="translate(-7.9 -14.1)" fill="#414143"/><path d="M22.9,83.4H18.4a2.2,2.2,0,0,1-2.2-2.1l-2-42.4H27.2l-2,42.4A2.2,2.2,0,0,1,22.9,83.4Z" transform="translate(-7.9 -14.1)" fill="#414143"/><polygon points="14.4 73.9 11.2 73.9 10.4 70.1 15.2 70.1 14.4 73.9" fill="#414143"/><path d="M20.8,14.1h-.3A12.7,12.7,0,0,0,7.9,26.8V27a12.6,12.6,0,0,0,5.4,10.3H28.1A12.6,12.6,0,0,0,33.4,27v-.3A12.7,12.7,0,0,0,20.8,14.1Z" transform="translate(-7.9 -14.1)" fill="#414143"/><path d="M31.2,27.2a.4.4,0,0,1-.4-.4,10,10,0,0,0-10-10,.4.4,0,1,1,0-.8A10.9,10.9,0,0,1,31.6,26.8.4.4,0,0,1,31.2,27.2Z" transform="translate(-7.9 -14.1)" fill="#fff"/><path d="M27,101.9a6,6,0,0,1-3-.8c-1.9-1.1-3.3-3.3-4-6.5a21.6,21.6,0,0,1-.5-4.3V89h2.5v1.2a19.5,19.5,0,0,0,.5,3.8c.4,1.7,1.2,4,2.8,4.9s3.7.5,6.4-1.1l1.1-.6L34,99.3l-1.1.6A11.8,11.8,0,0,1,27,101.9Z" transform="translate(-7.9 -14.1)" fill="#414143"/><rect x="11.8" y="29.8" width="2.3" height="5.63" rx="1.1" ry="1.1" fill="#e8e8e8"/><rect x="11.8" y="29.8" width="2.3" height="5.63" rx="1.1" ry="1.1" fill="#e8e8e8"/><path d="M21.5,46.7V45a.8.8,0,0,0-.8-.8h0a.8.8,0,0,0-.8.8v1.7Z" transform="translate(-7.9 -14.1)" fill="#414143"/></svg>