<svg id="Lag_1" xmlns="http://www.w3.org/2000/svg" viewBox="0 0 345.3 128"><style>.st0{fill:#e4e4e4}</style><path class="st0" d="M150.4 60.2l-15.1-28.3v25.2c0 .6.1 54.3.4 54.6.3.3.8.6 1.5.8v1h-12v-1c.7-.2 1.2-.5 1.5-.8.3-.3.4-54 .4-54.6V22.4c0-.6-.1-1.1-.4-1.4-.3-.3-.8-.6-1.5-.8v-1H141v1c-.9.2-1.4.8-1.4 1.7 0 .4.1.9.4 1.4l11.2 21.2 11.3-20.8c.5-.9.8-1.6.8-2 0-.8-.5-1.3-1.5-1.4v-1h15.5v1c-.7.2-1.2.5-1.5.8-.3.3-.4.8-.4 1.4v34.7c0 .6.1 1.1.4 1.4.3.3.8.6 1.5.8v1h-12.8v-1c.7-.2 1.2-.4 1.5-.8.3-.3.4-.8.4-1.4V31.9l-16 28.3zM219.1 29.7v17.8c0 4.1-.8 7-2.4 8.9-2.6 3-7.4 4.5-14.6 4.5-4.8 0-8.6-.7-11.6-2.2-2.1-1.1-3.6-2.6-4.4-4.5-.7-1.8-1.1-4.1-1.1-6.8V29.7c0-.6-.1-1.1-.4-1.4-.3-.3-.8-.6-1.5-.8v-.8H195v.8c-.7.2-1.2.5-1.5.8-.3.3-.4.8-.4 1.4v16.2c0 1.9.2 3.3.5 4.3s.9 1.8 1.7 2.5c1.6 1.3 4 2 7.1 2s5.5-.6 7.1-2c.8-.6 1.4-1.5 1.7-2.5.3-1 .5-2.4.5-4.3V29.7c0-.6-.1-1.1-.4-1.4-.3-.3-.8-.6-1.5-.8v-.8H221v.8c-.7.2-1.2.5-1.5.8-.3.3-.4.8-.4 1.4zM258.6 29.7l-4.1 7.8-.7-.4c0-.7-.2-1.2-.6-1.6-1.1-1-2.8-1.9-5-2.5-2.2-.7-4.5-1-6.8-1-1.9 0-3.7.3-5.2.8-2.2.8-3.2 1.9-3.2 3.4 0 1 .5 1.7 1.6 2.1 1 .4 3.1.7 6 1l4.7.4c4.1.3 7.3 1.1 9.5 2.4 1.2.7 2.2 1.7 3 2.9 1 1.5 1.5 3.2 1.5 5.1 0 3.4-1.5 6.1-4.6 8.1-2.9 1.9-6.9 2.9-11.9 2.9-5.1 0-10-1.1-14.7-3.2-.3-.1-.6-.2-.8-.2-.4 0-.8.2-1.1.7l-.8-.3 3.5-8.2.8.3v.2c0 .5.2 1 .6 1.3 1 .9 2.7 1.6 5.2 2.3 2.5.7 4.9 1 7.3 1 2.1 0 4-.3 5.7-.8 2.1-.7 3.1-1.8 3.1-3.3 0-1.2-.7-2.1-2.2-2.6-1-.3-2.7-.6-5.2-.8l-4.7-.4c-2.5-.2-4.5-.5-5.8-.8-1.3-.3-2.5-.8-3.5-1.4-1.3-.8-2.3-1.9-3-3.3-.7-1.4-1.1-2.9-1.1-4.5 0-3.7 1.6-6.5 4.7-8.4 2.9-1.8 6.4-2.6 10.7-2.6 2.3 0 4.4.3 6.4.8s4.4 1.4 7.1 2.7c.8.4 1.4.6 1.7.6.3 0 .7-.2 1.2-.7l.7.2zM274.1 29.7v27.5c0 .6.1 1.1.4 1.4.3.3.8.6 1.5.8v.8h-11.9v-.8c.7-.2 1.2-.4 1.5-.8.3-.3.4-.8.4-1.4V29.7c0-.6-.1-1.1-.4-1.4-.3-.3-.8-.6-1.5-.8v-.8H276v.8c-.7.2-1.2.5-1.5.8-.3.3-.4.8-.4 1.4zM314.8 48.2l5.1 7.4-.7.5c-.5-.3-.9-.5-1.1-.5-.3 0-1.1.4-2.4 1.1-2.7 1.6-5.2 2.7-7.3 3.3-2.1.6-4.5.9-7.3.9-5.5 0-10-1.3-13.4-3.9-2-1.5-3.5-3.4-4.7-5.6a17.8 17.8 0 0 1-1.9-8c0-3.9 1.1-7.4 3.4-10.4 3.6-4.7 9.1-7.1 16.5-7.1 2.7 0 5.2.3 7.3.9 2.1.6 4.6 1.7 7.3 3.3 1.2.7 2 1.1 2.4 1.1.3 0 .7-.2 1.1-.5l.7.5-5.1 7.4-.7-.5c0-.2 0-.4.1-.4v-.4c0-1-1.4-2.1-4.1-3.3-2.6-1.2-5.1-1.8-7.7-1.8-3.6 0-6.6 1-9 2.9-2.7 2.2-4.1 4.9-4.1 8.3 0 3.4 1.4 6.2 4.1 8.3 2.4 1.9 5.4 2.8 9 2.8 2.8 0 5.7-.7 8.5-2.1 2.2-1.1 3.3-2.1 3.3-2.9 0 0 0-.3-.1-.8l.8-.5z"/><path class="st0" d="M151.6 110.3V75.6c0-.6-.1-1.1-.4-1.4-.3-.3-.8-.6-1.5-.8v-1h12.8v1c-.7.2-1.2.4-1.5.8-.3.3-.4.8-.4 1.4v34.7c0 .6.1 1.1.4 1.4.3.3.8.6 1.5.8v1h-12.8v-1c.7-.2 1.2-.5 1.5-.8.2-.3.4-.8.4-1.4zM170.9 110.4V82.9c0-.6-.1-1.1-.4-1.4-.3-.3-.8-.6-1.5-.8v-.8h19.7c4.1 0 7.3.5 9.7 1.5 3.3 1.4 5.7 3.8 7.2 7.1 1 2.3 1.5 5 1.5 8.1 0 5.7-1.7 10.1-5.1 13.1-1.5 1.3-3.4 2.3-5.4 2.9-2.1.6-4.7.9-7.8.9H169v-.8c.7-.2 1.2-.4 1.5-.8s.4-.9.4-1.5zm8.1-3.1h8.6c3.9 0 6.8-.9 8.6-2.7 1.9-1.9 2.8-4.6 2.8-8 0-3.5-.9-6.1-2.8-8-.9-.9-2.1-1.6-3.4-2.1-1.4-.4-3.1-.6-5.2-.6H179v21.4zM222.2 99.1v8.2h21.3c.6 0 1.1-.1 1.4-.4.3-.3.6-.8.8-1.5h.8v9.9h-.8c-.2-.7-.4-1.2-.8-1.5-.3-.3-.8-.4-1.4-.4h-31.3v-.8c.7-.2 1.2-.4 1.5-.8s.4-.8.4-1.4V82.9c0-.6-.1-1.1-.4-1.4-.3-.3-.8-.6-1.5-.8v-.8h30.4c.6 0 1.1-.1 1.5-.4.3-.3.6-.8.8-1.5h.8v9.9h-.8c-.2-.7-.5-1.2-.8-1.5-.3-.3-.8-.4-1.5-.4h-20.4v7.4h12.7c.6 0 1.1-.1 1.4-.4.3-.3.6-.8.8-1.5h.8v9.7h-.8c-.2-.7-.5-1.2-.8-1.5-.3-.3-.8-.4-1.5-.4h-12.6zM277.2 105h-15.5l-1.7 3.7c-.4.9-.6 1.6-.6 2.1 0 1 .6 1.6 1.9 1.8v.8h-12.4v-.8c.8-.1 1.3-.4 1.7-.7.4-.3.8-1 1.3-2L264.2 85c.5-.9.7-1.8.7-2.5 0-.8-.6-1.5-1.7-1.9v-.8h13.1v.8c-1.1.4-1.7 1.1-1.7 2 0 .7.2 1.5.8 2.4l12.7 24.1c.7 1.3 1.2 2.2 1.7 2.5.4.4 1 .7 1.8.8v.8h-13.7v-.8c1.3-.2 1.9-.8 1.9-1.8 0-.6-.3-1.4-.8-2.3l-1.8-3.3zm-2.4-4.7l-5.5-10.8-5.2 10.8h10.7zM64.9 93.4c-.9.7-1.7 1.4-2.6 2.2-.3.3-.7.6-1 .9-1.4 1.8-.6 4.1 2.6 7.4 1.6 1.6 3.2 1.9 4.8.6 5.4-4.3 10.8-8.7 16.2-13 1-.8 1.8-2.2 1.2-3.4-.7-1.4.2-1.9 1-2.5 3.2-2.6 6.3-5.2 9.6-7.7 1.5-1.1 2.2-2.4 2.7-4.3 1.5-6.4 3.2-12.7 4.9-19 0-.2.3-.3.6-.7.8 2 1.1 3.9 1.2 5.8.8 9.8-.7 19.1-5.4 27.9-4.7 8.9-11.5 15.7-20.3 20.4-7.9 4.2-16.4 6.1-25.3 5.5-14.5-1-26.4-7.2-35.5-18.5-4.8-5.9-7.8-12.6-9.4-20-1.5-7.1-1.4-14.3.4-21.3 3.3-13 10.6-23.1 22.1-30.1 10-6.1 20.8-8.3 32.4-6.5 14.6 2.3 25.7 9.7 33.8 22 1.1 1.6 1.9 3.4 2.9 5.1.4.6.4 1.3.2 2-2.3 8.8-4.6 17.7-6.9 26.5-.2.9-.9 1.6-1.6 2.2-3.1 2.6-6.4 5.1-9.5 7.6-.7.6-1.2.7-1.9.1-1.3-1-2.5-.7-3.7.2l-12 9.6-1.5 1z"/><path d="M77.3 64.9c.4-10.5-8.8-19.7-19.6-19.7-10.8.1-19.7 8.9-19.7 19.5 0 11.3 8.7 19.9 19.8 20 10.3.1 20-9.1 19.5-19.8zm-19.7 4.5c-2.2 0-4.2-2.3-4.1-4.5.1-2.3 2-4.1 4.3-4.1s4.4 2.1 4.3 4.3c-.1 2.1-2.4 4.3-4.5 4.3z" fill="#adadad"/></svg>
