<?xml version="1.0" encoding="utf-8"?>
<!-- Generator: Adobe Illustrator 21.0.0, SVG Export Plug-In . SVG Version: 6.00 Build 0)  -->
<svg version="1.1" id="Lag_1" xmlns="http://www.w3.org/2000/svg" xmlns:xlink="http://www.w3.org/1999/xlink" x="0px" y="0px"
	 viewBox="0 0 164.8 87.8" style="enable-background:new 0 0 164.8 87.8;" xml:space="preserve">
<style type="text/css">
	.st0{fill:#EDEDED;}
</style>
<title>Musicidea-logo3</title>
<path class="st0" d="M65.4,37h-4.6V22.2l-0.7,2L55,36.9h-3.8l-5.2-12.7l-0.7-2v47.1h-4.5V13.6h5.2l6.6,15.1l0.5,1.3l0.5-1.3
	l6.6-15.1h5.2V37z"/>
<path class="st0" d="M88.3,27.5c0,3.1-0.8,5.5-2.4,7.3c-1.6,1.7-3.9,2.6-6.9,2.6s-5.3-0.9-6.9-2.6c-1.7-1.7-2.6-4.1-2.6-7.3V13.6
	h4.5v13.9c-0.1,1.4,0.3,2.9,1.1,4.1c2,1.9,5.2,1.9,7.3,0c0.9-1.1,1.2-2.7,1.1-4.1V13.6h4.5L88.3,27.5z"/>
<path class="st0" d="M99.3,13.1c1.9-0.1,3.7,0.6,5.2,1.7c1.2,1.1,2,3,2.1,5.2H102c0-0.8-0.3-1.6-0.9-2.2c-1-1-2.7-1-3.8-0.1
	c-0.7,0.9-0.9,2-0.4,3c0.2,0.3,0.5,0.6,0.8,0.9l1.2,0.7l1.8,0.7c1,0.4,2.1,0.8,3.1,1.3c0.8,0.4,1.4,1,2.1,1.6c0.5,0.6,1,1.2,1.1,1.9
	c0.2,0.8,0.4,1.5,0.3,2.3c0,1-0.2,2-0.6,3c-0.4,0.9-0.9,1.6-1.6,2.3c-0.7,0.6-1.5,1-2.4,1.3c-1,0.3-2,0.5-3,0.5
	c-1.1,0-2.4-0.2-3.5-0.6c-1-0.4-1.8-0.9-2.5-1.6c-0.7-0.7-1.2-1.5-1.6-2.4c-0.4-1-0.6-2-0.6-3.1h4.5c0.1,2.3,1.3,3.5,3.6,3.5
	c0.9,0.1,1.6-0.2,2.3-0.8c0.5-0.5,0.8-1.2,0.8-1.9c0-0.8-0.3-1.4-1-1.9c-1-0.7-2-1.1-3.1-1.5c-1-0.3-1.9-0.7-2.8-1.1
	c-0.8-0.4-1.4-0.9-2.1-1.5c-0.6-0.6-1-1.1-1.3-1.9c-0.3-0.9-0.5-1.7-0.4-2.6c0-1,0.2-1.9,0.5-2.9c0.3-0.8,0.8-1.5,1.4-2.2
	c0.7-0.7,1.4-1.1,2.3-1.4C97.2,13.2,98.3,13,99.3,13.1z"/>
<path class="st0" d="M115.1,37h-4.5V13.6h4.5V37z"/>
<path class="st0" d="M130.1,13.1c1.3,0,2.7,0.2,3.9,0.6c1.1,0.4,2.2,1,3.1,1.6c0.9,0.7,1.6,1.5,2.2,2.5c0.6,1,1,2.1,1.3,3.2h-4.9
	c-0.4-1-1-2-1.9-2.8c-1-0.8-2.4-1-3.6-1c-1,0-1.9,0.2-2.8,0.6c-0.9,0.4-1.6,1-2.2,1.6c-0.7,0.8-1.1,1.6-1.4,2.5
	c-0.4,1-0.5,2-0.5,3.1c0,1,0.2,2.1,0.5,3.1c0.3,1,0.8,1.7,1.4,2.5c0.6,0.7,1.3,1.2,2.2,1.6c0.9,0.4,1.8,0.6,2.9,0.6
	c1.3,0.1,2.7-0.3,3.8-1c1-0.8,1.6-1.7,2-2.9h4.8c-0.5,2.3-1.8,4.5-3.6,6c-2,1.5-4.5,2.3-7,2.2c-1.6,0-3.1-0.3-4.7-1
	c-1.3-0.6-2.7-1.4-3.6-2.5c-1-1.1-1.9-2.4-2.4-3.8c-1.1-3.1-1.1-6.5,0-9.6c0.6-1.4,1.3-2.8,2.4-3.8c1-1,2.2-1.9,3.6-2.5
	C127,13.5,128.5,13.1,130.1,13.1z"/>
<path class="st0" d="M56.2,69.3h-4.5V46h4.5V69.3z"/>
<path class="st0" d="M69.4,46c1.7,0,3.3,0.3,4.9,0.9c1.4,0.6,2.7,1.3,3.7,2.4c1,1,1.9,2.3,2.4,3.6c1.1,3.1,1.1,6.4,0,9.4
	c-0.6,1.3-1.3,2.6-2.4,3.6c-1,1-2.4,1.9-3.7,2.4c-1.5,0.6-3.2,0.9-4.9,0.9h-8.6V46H69.4z M65.3,50.2V65h4.1c2,0.1,3.9-0.6,5.3-1.9
	c1.3-1.5,2-3.5,1.8-5.5c0.1-2-0.5-4-1.8-5.5c-1.4-1.3-3.3-2.1-5.3-1.9L65.3,50.2L65.3,50.2z"/>
<path class="st0" d="M98.1,50.2h-8.8v4.9h7.5v4.3h-7.5v5.5h8.8v4.4H84.8V46h13.3V50.2z"/>
<path class="st0" d="M122.7,69.3h-4.9l-1.9-5.2h-9.2l-1.8,5.2h-4.9l8.9-23.3h4.9L122.7,69.3z M110.9,52.9l-2.8,7.3h6.3l-2.8-7.3
	l-0.4-1.3L110.9,52.9z"/>
<polygon class="st0" points="14.4,73.9 11.2,73.9 10.4,70.1 15.2,70.1 "/>
<path class="st0" d="M12.9,0h-0.3C5.6,0.1,0,5.7,0,12.7v0.2c0,4.1,2,8,5.4,10.3h14.8c3.3-2.4,5.3-6.2,5.3-10.3v-0.3
	C25.4,5.7,19.8,0.1,12.9,0z M23.3,13.1c-0.2,0-0.4-0.2-0.4-0.4c0-5.5-4.5-10-10-10c-0.2,0-0.4-0.2-0.4-0.4s0.2-0.4,0.4-0.4
	C18.8,2,23.6,6.8,23.7,12.7C23.7,12.9,23.5,13.1,23.3,13.1z"/>
<g>
	<path class="st0" d="M6.3,24.8l2,42.4c0.1,1.2,1,2.1,2.2,2.1H15c1.2,0.1,2.2-0.9,2.3-2.1l2-42.4H6.3z M14.1,34.3
		c0,0.6-0.5,1.1-1.1,1.1h-0.1c-0.6,0-1.1-0.5-1.1-1.1v-3.4c0-0.6,0.5-1.1,1.1-1.1c0.7,0,1.2,0.5,1.2,1.1V34.3z"/>
	<path class="st0" d="M13,30.1c-0.4,0-0.8,0.4-0.8,0.8v1.7h1.6v-1.7C13.8,30.5,13.3,30.1,13,30.1z"/>
</g>
<path class="st0" d="M14.6,79.9c-0.3-1.2-0.5-2.5-0.5-3.8v-1.2h-2.5v1.3c0,1.4,0.2,2.9,0.5,4.3c0.1,0.5,0.3,1.1,0.4,1.5l2.5-0.7
	C14.8,80.8,14.7,80.3,14.6,79.9z"/>
</svg>
