<svg data-name="Lag 1" xmlns="http://www.w3.org/2000/svg" width="142" height="168.3"><path data-name="&lt;Kurve&gt;" d="M18.9 157.7s24.4 10.9 50.1 10.7h3.9c25.8.3 50.1-10.7 50.1-10.7 11.7 1.8 18.9-8.4 18.9-8.4l-3.2-24.4c-2-22.1-22.3-25.9-26.4-27.2s-18.8-5.3-20.8-9.9c-.7-1.5-.7-4.4-.5-7.6 5.8-7 9.6-15.8 11.6-21.4 3 2.1 4.2-.5 4.2-.5 9.4-13.7 3.6-19.3 2.3-20.3s-2.5.8-2.5.8v.4C108.4 2.7 77.2.2 73.5 0h-4.8c-3.7.2-35 2.7-33.2 39.2v-.4S34.2 37 33 38s-7.1 6.6 2.3 20.3c0 0 1.2 2.6 4.2.5 2 5.6 5.8 14.4 11.6 21.4.2 3.2.2 6.1-.5 7.6-2 4.6-16.8 8.6-20.8 9.9s-24.4 5.1-26.4 27.2L0 149.3s7.3 10.2 18.9 8.4z" fill="#686868"/></svg>